<?xml version="1.0" encoding="utf-8"?>
<!-- Generator: Adobe Illustrator 21.1.0, SVG Export Plug-In . SVG Version: 6.00 Build 0)  -->
<svg version="1.1" id="Layer_1" xmlns="http://www.w3.org/2000/svg" xmlns:xlink="http://www.w3.org/1999/xlink" x="0px" y="0px"
	 viewBox="0 0 481 427" style="enable-background:new 0 0 481 427;" xml:space="preserve">
<style type="text/css">
	.st0{fill:#FF916E;}
	.st1{fill:#FFFFFF;}
	.st2{opacity:0.5;}
	.st3{fill:#45525B;}
	.st4{fill:#192E2D;}
	.st5{fill:#CFDBE5;}
	.st6{fill:#FDFBF2;}
	.st7{fill:#F2F2F2;}
	.st8{fill-rule:evenodd;clip-rule:evenodd;fill:#45525B;}
	.st9{fill-rule:evenodd;clip-rule:evenodd;fill:#FEFDFA;}
	.st10{fill-rule:evenodd;clip-rule:evenodd;fill:#192E2D;}
	.st11{fill:#B3B3B3;}
	.st12{fill:#F1F3EE;}
	.st13{fill:#B2B2B2;}
	.st14{fill:#FED65C;}
	.st15{fill:#DFBF9B;}
	.st16{fill:#333333;}
	.st17{fill-rule:evenodd;clip-rule:evenodd;fill:#B2B2B2;}
	.st18{opacity:0.6;}
	.st19{opacity:0.3;}
	.st20{fill-rule:evenodd;clip-rule:evenodd;fill:#FED65C;}
	.st21{fill-rule:evenodd;clip-rule:evenodd;fill:#333333;}
	.st22{fill-rule:evenodd;clip-rule:evenodd;fill:#FFFFFF;}
	.st23{fill-rule:evenodd;clip-rule:evenodd;fill:#FF916E;}
	.st24{fill:#79B5B5;}
</style>
<g>
	<g>
		<path class="st0" d="M298.2,106.3h-64.1c-4.1,0-7.4,3.3-7.4,7.4v4.8c0,4.1,3.3,7.4,7.4,7.4h64.1c4.1,0,7.4-3.3,7.4-7.4v-4.8
			C305.6,109.6,302.3,106.3,298.2,106.3z"/>
	</g>
	<g>
		<path class="st0" d="M343,68.3h-93.3c-5.4,0-9.8,4.4-9.8,9.8c0,5.4,4.4,9.8,9.8,9.8H343c5.4,0,9.8-4.4,9.8-9.8
			C352.8,72.7,348.4,68.3,343,68.3z"/>
	</g>
	<g>
		<path class="st0" d="M227.4,68.3h-14.4c-5.4,0-9.8,4.4-9.8,9.8c0,5.4,4.4,9.8,9.8,9.8h14.4c5.4,0,9.8-4.4,9.8-9.8
			C237.2,72.7,232.8,68.3,227.4,68.3z"/>
	</g>
	<g>
		<path class="st0" d="M294.3,87.3h-47.2c4.8,0,8.6,3.9,8.6,8.7v2.2c0,4.8-3.9,8.7-8.6,8.7h47.2c-4.8,0-8.6-3.9-8.6-8.7v-2.2
			C285.7,91.2,289.6,87.3,294.3,87.3z"/>
	</g>
</g>
<g>
	<g>
		<path class="st0" d="M343.2,316.3H191c-4.9,0-8.9,4-8.9,8.9v1.3c0,4.9,4,8.9,8.9,8.9h152.1c4.9,0,8.9-4,8.9-8.9v-1.3
			C352.1,320.3,348.1,316.3,343.2,316.3z"/>
	</g>
	<g>
		<path class="st0" d="M336.4,353.4H167.2c-4.9,0-8.9,4-8.9,8.9v1.3c0,4.9,4,8.9,8.9,8.9h169.2c4.9,0,8.9-4,8.9-8.9v-1.3
			C345.3,357.5,341.3,353.4,336.4,353.4z"/>
	</g>
	<g>
		<path class="st0" d="M153.7,273.7h-15.3c-4.9,0-8.9,4-8.9,8.9v1.3c0,4.9,4,8.9,8.9,8.9h15.3c4.9,0,8.9-4,8.9-8.9v-1.3
			C162.6,277.7,158.6,273.7,153.7,273.7z"/>
	</g>
	<g>
		<path class="st0" d="M292.9,384.9h-45.4c-4.6,0-8.3,3.7-8.3,8.3v0.3c0,4.6,3.7,8.3,8.3,8.3h45.4c4.6,0,8.3-3.7,8.3-8.3v-0.3
			C301.2,388.7,297.4,384.9,292.9,384.9z"/>
	</g>
	<g>
		<path class="st0" d="M163.6,316.3H136c-4.9,0-8.9,4-8.9,8.9v1.3c0,4.9,4,8.9,8.9,8.9h27.6c4.9,0,8.9-4,8.9-8.9v-1.3
			C172.5,320.3,168.5,316.3,163.6,316.3z"/>
	</g>
	<g>
		<path class="st0" d="M332.2,334.9H193.1c4.6,0,8.5,3.8,8.5,8.5v2.2c0,4.6-3.8,8.5-8.5,8.5h139.1c-4.7,0-8.5-3.8-8.5-8.5v-2.2
			C323.7,338.7,327.6,334.9,332.2,334.9z"/>
	</g>
	<g>
		<path class="st0" d="M291.4,372.5h-43.4c3,0,5.5,2.5,5.5,5.5v1.4c0,3-2.5,5.5-5.5,5.5h43.4c-3,0-5.5-2.5-5.5-5.5V378
			C285.9,375,288.4,372.5,291.4,372.5z"/>
	</g>
	<g>
		<path class="st0" d="M243.9,283.3h-52.4c-4.9,0-8.9,4-8.9,8.9v1.3c0,4.9,4,8.9,8.9,8.9h52.4c4.9,0,8.9-4,8.9-8.9v-1.3
			C252.9,287.3,248.8,283.3,243.9,283.3z"/>
	</g>
	<g>
		<path class="st0" d="M242.9,302.3h-49.2c3.4,0,6.2,2.8,6.2,6.2v1.6c0,3.4-2.8,6.2-6.2,6.2h49.2c-3.4,0-6.2-2.8-6.2-6.2v-1.6
			C236.7,305.1,239.5,302.3,242.9,302.3z"/>
	</g>
</g>
<g>
	<g>
		<g>
			<g>
				<path class="st1" d="M295.4,338.6c0-9.8,0-24,0-24h-19.1h-19.1c0,0,0,14.2,0,24c0,9.8-26,17.7-26,17.7h45.1h45.1
					C321.3,356.3,295.4,348.4,295.4,338.6z"/>
			</g>
			<g class="st2">
				<path class="st3" d="M257.2,338h38.2c0-9.8,0-23.4,0-23.4h-38.2C257.2,314.6,257.2,328.2,257.2,338z"/>
			</g>
			<g>
				<path class="st4" d="M321.4,355.4h-90.3c-2.1,0-3.8,1.7-3.8,3.9c0,2.1,1.7,3.9,3.8,3.9h90.3c2.1,0,3.8-1.7,3.8-3.9
					C325.2,357.1,323.5,355.4,321.4,355.4z"/>
			</g>
		</g>
		<g>
			<path class="st4" d="M395.9,140.6H156.6c-4.2,0-7.5,3.4-7.5,7.7v148.9h254.4V148.3C403.5,144,400.1,140.6,395.9,140.6z"/>
		</g>
		<g>
			<rect x="161.3" y="148.9" class="st1" width="230.3" height="136.9"/>
		</g>
		<g>
			<path class="st3" d="M149.1,318.5c0,4.2,3.4,7.7,7.5,7.7h239.4c4.1,0,7.5-3.4,7.5-7.7v-22.8H149.1V318.5z"/>
		</g>
	</g>
	<g>
		<rect x="161.3" y="148.9" class="st5" width="230.3" height="12.5"/>
	</g>
	<g>
		<rect x="161.3" y="276.9" class="st5" width="230.3" height="8.9"/>
	</g>
	<g>
		<g>
			<rect x="161.3" y="161.4" class="st0" width="230.2" height="52.8"/>
		</g>
	</g>
	<g>
		<g>
			<g>
				<g>
					<rect x="294.1" y="164.6" class="st6" width="67.8" height="34.5"/>
				</g>
			</g>
		</g>
		<g>
			<g>
				<rect x="294.9" y="202" class="st3" width="67.1" height="3.2"/>
			</g>
		</g>
		<g>
			<g>
				<rect x="294.9" y="207.8" class="st3" width="56" height="3.2"/>
			</g>
		</g>
		<g>
			<g>
				<polygon class="st3" points="365.8,186.6 372.1,181.8 365.8,177 				"/>
			</g>
		</g>
	</g>
	<g>
		<g>
			<g>
				<g>
					<rect x="195.2" y="164.6" class="st6" width="67.8" height="34.5"/>
				</g>
			</g>
		</g>
		<g>
			<g>
				<rect x="195.2" y="202" class="st3" width="67.1" height="3.2"/>
			</g>
		</g>
		<g>
			<g>
				<rect x="206.3" y="207.8" class="st3" width="56" height="3.2"/>
			</g>
		</g>
		<g>
			<g>
				<polygon class="st3" points="191.4,186.6 191.4,177 185.1,181.8 				"/>
			</g>
		</g>
	</g>
	<g>
		<g>
			<ellipse class="st5" cx="185.1" cy="228.4" rx="11.2" ry="11.2"/>
		</g>
		<g>
			<g>
				<rect x="176.9" y="244.8" class="st5" width="16.8" height="4.5"/>
			</g>
			<g>
				<rect x="176.9" y="251.7" class="st5" width="16.8" height="4.5"/>
			</g>
		</g>
	</g>
	<g>
		<g>
			<path class="st5" d="M245.9,217.2c-6.2,0-11.2,5-11.2,11.2c0,6.2,5,11.2,11.2,11.2c6.2,0,11.2-5,11.2-11.2
				C257.2,222.2,252.1,217.2,245.9,217.2z"/>
		</g>
		<g>
			<g>
				<rect x="237.5" y="244.8" class="st5" width="16.8" height="4.5"/>
			</g>
			<g>
				<rect x="237.5" y="251.7" class="st5" width="16.8" height="4.5"/>
			</g>
		</g>
	</g>
	<g>
		<g>
			<circle class="st5" cx="306.8" cy="228.4" r="11.2"/>
		</g>
		<g>
			<g>
				<rect x="298.4" y="244.8" class="st5" width="16.8" height="4.5"/>
			</g>
			<g>
				<rect x="298.4" y="251.7" class="st5" width="16.8" height="4.5"/>
			</g>
		</g>
	</g>
	<g>
		<g>
			<circle class="st5" cx="367.7" cy="228.4" r="11.2"/>
		</g>
		<g>
			<g>
				<rect x="359.3" y="244.8" class="st5" width="16.8" height="4.5"/>
			</g>
			<g>
				<rect x="359.3" y="251.7" class="st5" width="16.8" height="4.5"/>
			</g>
		</g>
	</g>
	<g>
		<rect x="161.3" y="259.3" class="st4" width="230.3" height="17.6"/>
	</g>
	<g>
		<g>
			<rect x="180" y="262.4" class="st7" width="59" height="2.7"/>
		</g>
		<g>
			<rect x="180" y="266.9" class="st7" width="59" height="2.7"/>
		</g>
		<g>
			<rect x="180" y="271.4" class="st7" width="59" height="2.7"/>
		</g>
	</g>
	<g>
		<g>
			<rect x="248.6" y="262.4" class="st7" width="59" height="2.7"/>
		</g>
		<g>
			<rect x="248.6" y="266.9" class="st7" width="59" height="2.7"/>
		</g>
		<g>
			<rect x="248.6" y="271.4" class="st7" width="59" height="2.7"/>
		</g>
	</g>
	<g>
		<g>
			<rect x="317.2" y="262.4" class="st7" width="59" height="2.7"/>
		</g>
		<g>
			<rect x="317.2" y="266.9" class="st7" width="59" height="2.7"/>
		</g>
		<g>
			<rect x="317.2" y="271.4" class="st7" width="59" height="2.7"/>
		</g>
	</g>
</g>
<g>
	<g>
		<path class="st3" d="M193.6,84H80.4c-4.6,0-8.2,3.7-8.2,8.3v149c0,4.6,3.7,8.2,8.2,8.2h113.2c4.5,0,8.2-3.7,8.2-8.2v-149
			C201.9,87.7,198.2,84,193.6,84z"/>
	</g>
	<g>
		<path class="st1" d="M137.1,240.5c-2,0-3.6,1.6-3.6,3.6c0,2,1.6,3.6,3.6,3.6c2,0,3.6-1.6,3.6-3.6
			C140.7,242.1,139.1,240.5,137.1,240.5z"/>
	</g>
	<g>
		<rect x="82.8" y="94.6" class="st1" width="108.4" height="144.4"/>
	</g>
	<g>
		<rect x="82.8" y="94.6" class="st5" width="108.4" height="13.2"/>
	</g>
	<g>
		<rect x="82.8" y="229.6" class="st5" width="108.4" height="9.4"/>
	</g>
	<g>
		<g>
			<g>
				<g>
					<rect x="82.9" y="107.8" class="st0" width="108.3" height="55.6"/>
				</g>
			</g>
			<g>
				<g>
					<g>
						<rect x="97.6" y="115.5" class="st6" width="37.8" height="28.2"/>
					</g>
				</g>
			</g>
			<g>
				<g>
					<g>
						<rect x="140.4" y="115.5" class="st6" width="37.8" height="28.2"/>
					</g>
				</g>
			</g>
			<g>
				<g>
					<rect x="87.7" y="149.4" class="st3" width="39.2" height="2.9"/>
				</g>
			</g>
			<g>
				<g>
					<rect x="87.7" y="154.8" class="st3" width="48" height="2.9"/>
				</g>
			</g>
			<g>
				<g>
					<rect x="141" y="149.4" class="st3" width="41.4" height="2.9"/>
				</g>
			</g>
			<g>
				<g>
					<rect x="141" y="154.8" class="st3" width="31.4" height="2.9"/>
				</g>
			</g>
			<g>
				<g>
					<polygon class="st3" points="182.2,134.3 187.9,130 182.2,125.6 					"/>
				</g>
			</g>
			<g>
				<g>
					<polygon class="st3" points="92.5,134.3 92.5,125.6 86.7,130 					"/>
				</g>
			</g>
		</g>
		<g>
			<path class="st5" d="M101.5,169.4c-5.6,0-10.2,4.6-10.2,10.2c0,5.6,4.6,10.2,10.2,10.2c5.6,0,10.2-4.6,10.2-10.2
				C111.7,174,107.1,169.4,101.5,169.4z"/>
		</g>
		<g>
			<circle class="st5" cx="125.5" cy="179.6" r="10.2"/>
		</g>
		<g>
			<ellipse class="st5" cx="173.5" cy="179.6" rx="10.2" ry="10.2"/>
		</g>
		<g>
			<circle class="st5" cx="149.5" cy="179.6" r="10.2"/>
		</g>
		<g>
			<g>
				<rect x="94.2" y="194.6" class="st5" width="15.3" height="4.1"/>
			</g>
			<g>
				<rect x="94.2" y="200.8" class="st5" width="15.3" height="4.1"/>
			</g>
		</g>
		<g>
			<g>
				<rect x="117.9" y="194.6" class="st5" width="15.3" height="4.1"/>
			</g>
			<g>
				<rect x="117.9" y="200.8" class="st5" width="15.3" height="4.1"/>
			</g>
		</g>
		<g>
			<g>
				<rect x="141.9" y="194.6" class="st5" width="15.3" height="4.1"/>
			</g>
			<g>
				<rect x="141.9" y="200.8" class="st5" width="15.3" height="4.1"/>
			</g>
		</g>
		<g>
			<g>
				<rect x="165.9" y="194.6" class="st5" width="15.3" height="4.1"/>
			</g>
			<g>
				<rect x="165.9" y="200.8" class="st5" width="15.3" height="4.1"/>
			</g>
		</g>
	</g>
	<g>
		<g>
			<rect x="82.8" y="211" class="st3" width="108.4" height="18.6"/>
		</g>
		<g>
			<g>
				<rect x="89.6" y="214.3" class="st7" width="27.8" height="2.9"/>
			</g>
			<g>
				<rect x="89.6" y="219" class="st7" width="27.8" height="2.9"/>
			</g>
			<g>
				<rect x="89.6" y="223.8" class="st7" width="27.8" height="2.9"/>
			</g>
		</g>
		<g>
			<g>
				<rect x="121.9" y="214.3" class="st7" width="27.8" height="2.9"/>
			</g>
			<g>
				<rect x="121.9" y="219" class="st7" width="27.8" height="2.9"/>
			</g>
			<g>
				<rect x="121.9" y="223.8" class="st7" width="27.8" height="2.9"/>
			</g>
		</g>
		<g>
			<g>
				<rect x="154.2" y="214.3" class="st7" width="27.8" height="2.9"/>
			</g>
			<g>
				<rect x="154.2" y="219" class="st7" width="27.8" height="2.9"/>
			</g>
			<g>
				<rect x="154.2" y="223.8" class="st7" width="27.8" height="2.9"/>
			</g>
		</g>
	</g>
</g>
<g>
	<g>
		<path class="st3" d="M258.2,58.2h-38c-0.7,0-1.2,0.5-1.2,1.2c0,0.7,0.5,1.2,1.2,1.2h38c0.7,0,1.2-0.5,1.2-1.2
			C259.4,58.7,258.9,58.2,258.2,58.2z"/>
	</g>
	<g>
		<path class="st3" d="M226.1,47.9h-3.9c-0.7,0-1.2,0.5-1.2,1.2c0,0.7,0.5,1.2,1.2,1.2h3.9c0.7,0,1.2-0.5,1.2-1.2
			C227.4,48.5,226.8,47.9,226.1,47.9z"/>
	</g>
	<g>
		<path class="st3" d="M261.9,47.9h-14.5c-0.7,0-1.2,0.5-1.2,1.2c0,0.7,0.5,1.2,1.2,1.2h14.5c0.7,0,1.2-0.5,1.2-1.2
			C263.1,48.5,262.5,47.9,261.9,47.9z"/>
	</g>
	<g>
		<path class="st3" d="M247.1,41.2h-31.6c-0.7,0-1.2,0.5-1.2,1.2c0,0.7,0.5,1.2,1.2,1.2h31.6c0.7,0,1.2-0.5,1.2-1.2
			C248.3,41.8,247.8,41.2,247.1,41.2z"/>
	</g>
	<g>
		<path class="st3" d="M233,27.5h-7.4c-0.7,0-1.2,0.6-1.2,1.2c0,0.7,0.5,1.2,1.2,1.2h7.4c0.7,0,1.2-0.5,1.2-1.2
			C234.3,28,233.7,27.5,233,27.5z"/>
		<path class="st3" d="M247.8,27.5h-7.4c-0.7,0-1.2,0.6-1.2,1.2c0,0.7,0.5,1.2,1.2,1.2h7.4c0.7,0,1.2-0.5,1.2-1.2
			C249,28,248.4,27.5,247.8,27.5z"/>
		<path class="st3" d="M262.5,27.5h-7.4c-0.7,0-1.2,0.6-1.2,1.2c0,0.7,0.5,1.2,1.2,1.2h7.4c0.7,0,1.2-0.5,1.2-1.2
			C263.7,28,263.2,27.5,262.5,27.5z"/>
		<path class="st3" d="M273,27.5h-3.2c-0.7,0-1.2,0.6-1.2,1.2c0,0.7,0.5,1.2,1.2,1.2h3.2c0.7,0,1.2-0.5,1.2-1.2
			C274.2,28,273.7,27.5,273,27.5z"/>
	</g>
	<g>
		<g>
			<path class="st3" d="M276.4,41.1H266c-0.7,0-1.2,0.5-1.2,1.2c0,0.7,0.5,1.2,1.2,1.2h10.4c0.7,0,1.2-0.5,1.2-1.2
				C277.6,41.6,277.1,41.1,276.4,41.1z"/>
		</g>
		<g>
			<path class="st3" d="M271.4,36.9c-0.7,0-1.2,0.5-1.2,1.2v8.6c0,0.7,0.5,1.2,1.2,1.2c0.7,0,1.2-0.5,1.2-1.2v-8.6
				C272.7,37.5,272.1,36.9,271.4,36.9z"/>
		</g>
	</g>
</g>
<g>
	<g>
		<path class="st3" d="M387.8,108.1H354c-0.7,0-1.2,0.6-1.2,1.2s0.5,1.2,1.2,1.2h33.7c0.7,0,1.2-0.5,1.2-1.2
			S388.4,108.1,387.8,108.1z"/>
	</g>
	<g>
		<path class="st3" d="M343.7,95.8h-11c-0.7,0-1.2,0.5-1.2,1.2c0,0.7,0.5,1.2,1.2,1.2h11c0.7,0,1.2-0.5,1.2-1.2
			C344.9,96.4,344.4,95.8,343.7,95.8z"/>
	</g>
	<g>
		<path class="st3" d="M392.9,114.6h-54.7c-0.7,0-1.2,0.5-1.2,1.2c0,0.7,0.5,1.2,1.2,1.2h54.7c0.7,0,1.2-0.6,1.2-1.2
			C394.2,115.1,393.6,114.6,392.9,114.6z"/>
	</g>
	<g>
		<path class="st3" d="M326.3,127.9h-7.4c-0.7,0-1.2,0.5-1.2,1.2c0,0.7,0.6,1.2,1.2,1.2h7.4c0.7,0,1.2-0.5,1.2-1.2
			C327.5,128.5,327,127.9,326.3,127.9z"/>
		<path class="st3" d="M355.8,127.9h-7.4c-0.7,0-1.2,0.5-1.2,1.2c0,0.7,0.5,1.2,1.2,1.2h7.4c0.7,0,1.2-0.5,1.2-1.2
			C357,128.5,356.4,127.9,355.8,127.9z"/>
		<path class="st3" d="M341,127.9h-7.4c-0.7,0-1.2,0.5-1.2,1.2c0,0.7,0.6,1.2,1.2,1.2h7.4c0.7,0,1.2-0.5,1.2-1.2
			C342.3,128.5,341.7,127.9,341,127.9z"/>
		<path class="st3" d="M370.5,127.9h-7.4c-0.7,0-1.2,0.5-1.2,1.2c0,0.7,0.6,1.2,1.2,1.2h7.4c0.7,0,1.2-0.5,1.2-1.2
			C371.7,128.5,371.2,127.9,370.5,127.9z"/>
		<path class="st3" d="M385.2,127.9h-7.4c-0.7,0-1.2,0.5-1.2,1.2c0,0.7,0.6,1.2,1.2,1.2h7.4c0.7,0,1.2-0.5,1.2-1.2
			C386.4,128.5,385.9,127.9,385.2,127.9z"/>
	</g>
	<g>
		<g>
			<path class="st3" d="M328.9,110.6h-9.1c-0.7,0-1.2,0.5-1.2,1.2c0,0.7,0.5,1.2,1.2,1.2h9.1c0.7,0,1.2-0.5,1.2-1.2
				C330.1,111.1,329.6,110.6,328.9,110.6z"/>
		</g>
		<g>
			<path class="st3" d="M324.1,106.3c-0.7,0-1.2,0.5-1.2,1.2v8.3c0,0.7,0.5,1.2,1.2,1.2c0.7,0,1.2-0.6,1.2-1.2v-8.3
				C325.4,106.8,324.8,106.3,324.1,106.3z"/>
		</g>
	</g>
</g>
<g>
	<g>
		<path class="st3" d="M117,301.7H86c-0.7,0-1.2,0.5-1.2,1.2c0,0.7,0.5,1.2,1.2,1.2h31c0.7,0,1.2-0.6,1.2-1.2
			C118.2,302.3,117.7,301.7,117,301.7z"/>
	</g>
	<g>
		<path class="st3" d="M90.8,291h-3.2c-0.7,0-1.2,0.5-1.2,1.2c0,0.7,0.5,1.2,1.2,1.2h3.2c0.7,0,1.2-0.5,1.2-1.2
			C92,291.5,91.5,291,90.8,291z"/>
	</g>
	<g>
		<path class="st3" d="M120,291h-11.9c-0.7,0-1.2,0.5-1.2,1.2c0,0.7,0.5,1.2,1.2,1.2H120c0.7,0,1.2-0.5,1.2-1.2
			C121.2,291.5,120.7,291,120,291z"/>
	</g>
	<g>
		<path class="st3" d="M107.9,283.9H82.1c-0.7,0-1.2,0.5-1.2,1.2c0,0.7,0.6,1.2,1.2,1.2h25.8c0.7,0,1.2-0.6,1.2-1.2
			C109.1,284.5,108.6,283.9,107.9,283.9z"/>
	</g>
	<g>
		<path class="st3" d="M97.8,269.5h-7.4c-0.7,0-1.2,0.5-1.2,1.2c0,0.7,0.5,1.2,1.2,1.2h7.4c0.7,0,1.2-0.5,1.2-1.2
			C99,270.1,98.5,269.5,97.8,269.5z"/>
		<path class="st3" d="M127.2,269.5h-7.4c-0.7,0-1.2,0.5-1.2,1.2c0,0.7,0.5,1.2,1.2,1.2h7.4c0.7,0,1.2-0.5,1.2-1.2
			C128.5,270.1,127.9,269.5,127.2,269.5z"/>
		<path class="st3" d="M112.5,269.5h-7.4c-0.7,0-1.2,0.5-1.2,1.2c0,0.7,0.5,1.2,1.2,1.2h7.4c0.7,0,1.2-0.5,1.2-1.2
			C113.7,270.1,113.2,269.5,112.5,269.5z"/>
	</g>
	<g>
		<g>
			<path class="st3" d="M132.5,283.8h-9.8c-0.7,0-1.2,0.5-1.2,1.2c0,0.7,0.5,1.2,1.2,1.2h9.8c0.7,0,1.2-0.5,1.2-1.2
				C133.8,284.3,133.2,283.8,132.5,283.8z"/>
		</g>
		<g>
			<path class="st3" d="M127.8,279.4c-0.7,0-1.2,0.6-1.2,1.2v9c0,0.7,0.5,1.2,1.2,1.2c0.7,0,1.2-0.5,1.2-1.2v-9
				C129.1,280,128.5,279.4,127.8,279.4z"/>
		</g>
	</g>
</g>
<g>
	<g>
		<path class="st3" d="M140.5,415.6h-31c-0.7,0-1.2,0.5-1.2,1.2c0,0.7,0.5,1.2,1.2,1.2h31c0.7,0,1.2-0.6,1.2-1.2
			C141.8,416.1,141.2,415.6,140.5,415.6z"/>
	</g>
	<g>
		<path class="st3" d="M114.4,404.8h-3.2c-0.7,0-1.2,0.5-1.2,1.2c0,0.7,0.5,1.2,1.2,1.2h3.2c0.7,0,1.2-0.5,1.2-1.2
			C115.6,405.4,115,404.8,114.4,404.8z"/>
	</g>
	<g>
		<path class="st3" d="M143.5,404.8h-11.9c-0.7,0-1.2,0.5-1.2,1.2c0,0.7,0.5,1.2,1.2,1.2h11.9c0.7,0,1.2-0.5,1.2-1.2
			C144.8,405.4,144.2,404.8,143.5,404.8z"/>
	</g>
	<g>
		<path class="st3" d="M131.5,397.8h-25.8c-0.7,0-1.2,0.5-1.2,1.2c0,0.7,0.6,1.2,1.2,1.2h25.8c0.7,0,1.2-0.6,1.2-1.2
			C132.7,398.3,132.1,397.8,131.5,397.8z"/>
	</g>
	<g>
		<path class="st3" d="M121.3,383.3H114c-0.7,0-1.2,0.5-1.2,1.2c0,0.7,0.5,1.2,1.2,1.2h7.4c0.7,0,1.2-0.5,1.2-1.2
			C122.6,383.9,122,383.3,121.3,383.3z"/>
		<path class="st3" d="M150.8,383.3h-7.4c-0.7,0-1.2,0.5-1.2,1.2c0,0.7,0.5,1.2,1.2,1.2h7.4c0.7,0,1.2-0.5,1.2-1.2
			C152,383.9,151.5,383.3,150.8,383.3z"/>
		<path class="st3" d="M136.1,383.3h-7.4c-0.7,0-1.2,0.5-1.2,1.2c0,0.7,0.5,1.2,1.2,1.2h7.4c0.7,0,1.2-0.5,1.2-1.2
			C137.3,383.9,136.7,383.3,136.1,383.3z"/>
	</g>
	<g>
		<g>
			<path class="st3" d="M156.1,397.6h-9.8c-0.7,0-1.2,0.5-1.2,1.2c0,0.7,0.5,1.2,1.2,1.2h9.8c0.7,0,1.2-0.5,1.2-1.2
				C157.3,398.1,156.8,397.6,156.1,397.6z"/>
		</g>
		<g>
			<path class="st3" d="M151.4,393.2c-0.7,0-1.2,0.6-1.2,1.2v9c0,0.7,0.5,1.2,1.2,1.2c0.7,0,1.2-0.5,1.2-1.2v-9
				C152.6,393.8,152.1,393.2,151.4,393.2z"/>
		</g>
	</g>
</g>
<g>
	<g>
		<path class="st3" d="M461.1,181.3h-31c-0.7,0-1.2,0.5-1.2,1.2c0,0.7,0.5,1.2,1.2,1.2h31c0.7,0,1.2-0.6,1.2-1.2
			C462.4,181.8,461.8,181.3,461.1,181.3z"/>
	</g>
	<g>
		<path class="st3" d="M434.9,170.5h-3.2c-0.7,0-1.2,0.5-1.2,1.2c0,0.7,0.5,1.2,1.2,1.2h3.2c0.7,0,1.2-0.5,1.2-1.2
			C436.2,171.1,435.6,170.5,434.9,170.5z"/>
	</g>
	<g>
		<path class="st3" d="M464.1,170.5h-11.9c-0.7,0-1.2,0.5-1.2,1.2c0,0.7,0.5,1.2,1.2,1.2h11.9c0.7,0,1.2-0.5,1.2-1.2
			C465.3,171.1,464.8,170.5,464.1,170.5z"/>
	</g>
	<g>
		<path class="st3" d="M452,163.5h-25.8c-0.7,0-1.2,0.5-1.2,1.2c0,0.7,0.6,1.2,1.2,1.2H452c0.7,0,1.2-0.6,1.2-1.2
			C453.3,164,452.7,163.5,452,163.5z"/>
	</g>
	<g>
		<path class="st3" d="M441.9,149h-7.4c-0.7,0-1.2,0.5-1.2,1.2c0,0.7,0.5,1.2,1.2,1.2h7.4c0.7,0,1.2-0.5,1.2-1.2
			C443.1,149.6,442.6,149,441.9,149z"/>
		<path class="st3" d="M471.4,149H464c-0.7,0-1.2,0.5-1.2,1.2c0,0.7,0.5,1.2,1.2,1.2h7.4c0.7,0,1.2-0.5,1.2-1.2
			C472.6,149.6,472,149,471.4,149z"/>
		<path class="st3" d="M456.6,149h-7.4c-0.7,0-1.2,0.5-1.2,1.2c0,0.7,0.5,1.2,1.2,1.2h7.4c0.7,0,1.2-0.5,1.2-1.2
			C457.9,149.6,457.3,149,456.6,149z"/>
	</g>
	<g>
		<g>
			<path class="st3" d="M476.7,163.3h-9.8c-0.7,0-1.2,0.5-1.2,1.2c0,0.7,0.5,1.2,1.2,1.2h9.8c0.7,0,1.2-0.5,1.2-1.2
				C477.9,163.8,477.4,163.3,476.7,163.3z"/>
		</g>
		<g>
			<path class="st3" d="M472,158.9c-0.7,0-1.2,0.6-1.2,1.2v9c0,0.7,0.5,1.2,1.2,1.2c0.7,0,1.2-0.5,1.2-1.2v-9
				C473.2,159.5,472.6,158.9,472,158.9z"/>
		</g>
	</g>
</g>
<g>
	<g>
		<path class="st3" d="M36.2,202.6h-31c-0.7,0-1.2,0.5-1.2,1.2c0,0.7,0.5,1.2,1.2,1.2h31c0.7,0,1.2-0.6,1.2-1.2
			C37.4,203.1,36.8,202.6,36.2,202.6z"/>
	</g>
	<g>
		<path class="st3" d="M10,191.8H6.8c-0.7,0-1.2,0.5-1.2,1.2c0,0.7,0.5,1.2,1.2,1.2H10c0.7,0,1.2-0.5,1.2-1.2
			C11.2,192.4,10.7,191.8,10,191.8z"/>
	</g>
	<g>
		<path class="st3" d="M39.2,191.8H27.3c-0.7,0-1.2,0.5-1.2,1.2c0,0.7,0.5,1.2,1.2,1.2h11.9c0.7,0,1.2-0.5,1.2-1.2
			C40.4,192.4,39.8,191.8,39.2,191.8z"/>
	</g>
	<g>
		<path class="st3" d="M27.1,184.8H1.2c-0.7,0-1.2,0.5-1.2,1.2c0,0.7,0.6,1.2,1.2,1.2h25.8c0.7,0,1.2-0.6,1.2-1.2
			C28.3,185.3,27.8,184.8,27.1,184.8z"/>
	</g>
	<g>
		<path class="st3" d="M17,170.3H9.6c-0.7,0-1.2,0.5-1.2,1.2c0,0.7,0.5,1.2,1.2,1.2H17c0.7,0,1.2-0.5,1.2-1.2
			C18.2,170.9,17.6,170.3,17,170.3z"/>
		<path class="st3" d="M46.4,170.3H39c-0.7,0-1.2,0.5-1.2,1.2c0,0.7,0.5,1.2,1.2,1.2h7.4c0.7,0,1.2-0.5,1.2-1.2
			C47.6,170.9,47.1,170.3,46.4,170.3z"/>
		<path class="st3" d="M31.7,170.3h-7.4c-0.7,0-1.2,0.5-1.2,1.2c0,0.7,0.5,1.2,1.2,1.2h7.4c0.7,0,1.2-0.5,1.2-1.2
			C32.9,170.9,32.4,170.3,31.7,170.3z"/>
	</g>
	<g>
		<g>
			<path class="st3" d="M51.7,184.6h-9.8c-0.7,0-1.2,0.5-1.2,1.2c0,0.7,0.5,1.2,1.2,1.2h9.8c0.7,0,1.2-0.5,1.2-1.2
				C52.9,185.1,52.4,184.6,51.7,184.6z"/>
		</g>
		<g>
			<path class="st3" d="M47,180.2c-0.7,0-1.2,0.6-1.2,1.2v9c0,0.7,0.5,1.2,1.2,1.2c0.7,0,1.2-0.5,1.2-1.2v-9
				C48.2,180.8,47.7,180.2,47,180.2z"/>
		</g>
	</g>
</g>
<g>
	<g>
		<path class="st8" d="M398.9,271.2h-38.1c-5.1,0-9.2,4.2-9.2,9.2V366c0,5.1,4.2,9.2,9.2,9.2h38.1c5.1,0,9.2-4.1,9.2-9.2v-85.6
			C408.1,275.3,403.9,271.2,398.9,271.2z"/>
	</g>
	<g>
		<rect x="353.3" y="280.4" class="st9" width="53" height="87.2"/>
	</g>
	<g>
		<rect x="374.4" y="277.1" class="st10" width="10.9" height="1.1"/>
	</g>
	<g>
		<circle class="st10" cx="379.8" cy="274.8" r="1"/>
	</g>
	<g>
		<circle class="st10" cx="379.8" cy="371.4" r="2.4"/>
	</g>
	<g>
		<g>
			<rect x="353.3" y="280.4" class="st5" width="53" height="6.4"/>
		</g>
		<g>
			<rect x="353.3" y="361.2" class="st5" width="53" height="6.4"/>
		</g>
		<g>
			<g>
				<g>
					<rect x="353.4" y="286.8" class="st0" width="53" height="32.5"/>
				</g>
			</g>
			<g>
				<g>
					<g>
						<rect x="360.5" y="291.4" class="st6" width="18.5" height="16.4"/>
					</g>
				</g>
			</g>
			<g>
				<g>
					<g>
						<rect x="381.5" y="291.4" class="st6" width="18.5" height="16.4"/>
					</g>
				</g>
			</g>
			<g>
				<g>
					<rect x="355.7" y="311.2" class="st3" width="19.2" height="1.7"/>
				</g>
			</g>
			<g>
				<g>
					<rect x="355.7" y="314.3" class="st3" width="23.5" height="1.7"/>
				</g>
			</g>
			<g>
				<g>
					<rect x="381.8" y="311.2" class="st3" width="20.3" height="1.7"/>
				</g>
			</g>
			<g>
				<g>
					<rect x="381.8" y="314.3" class="st3" width="15.3" height="1.7"/>
				</g>
			</g>
			<g>
				<g>
					<polygon class="st3" points="401.9,302.4 404.8,299.8 401.9,297.3 					"/>
				</g>
			</g>
			<g>
				<g>
					<polygon class="st3" points="358,302.4 358,297.3 355.2,299.8 					"/>
				</g>
			</g>
		</g>
		<g>
			<path class="st5" d="M362.5,325.4c-2.7,0-5,2.2-5,5c0,2.7,2.2,5,5,5c2.8,0,5-2.2,5-5C367.5,327.7,365.2,325.4,362.5,325.4z"/>
		</g>
		<g>
			<path class="st5" d="M374.2,325.4c-2.8,0-5,2.2-5,5c0,2.7,2.2,5,5,5c2.8,0,5-2.2,5-5C379.2,327.7,377,325.4,374.2,325.4z"/>
		</g>
		<g>
			<path class="st5" d="M397.7,325.4c-2.8,0-5,2.2-5,5c0,2.7,2.2,5,5,5s5-2.2,5-5C402.7,327.7,400.4,325.4,397.7,325.4z"/>
		</g>
		<g>
			<path class="st5" d="M386,325.4c-2.8,0-5,2.2-5,5c0,2.7,2.2,5,5,5c2.8,0,5-2.2,5-5C390.9,327.7,388.7,325.4,386,325.4z"/>
		</g>
		<g>
			<g>
				<rect x="358.9" y="337.7" class="st5" width="7.5" height="2"/>
			</g>
			<g>
				<rect x="358.9" y="340.8" class="st5" width="7.5" height="2"/>
			</g>
		</g>
		<g>
			<g>
				<rect x="370.5" y="337.7" class="st5" width="7.5" height="2"/>
			</g>
			<g>
				<rect x="370.5" y="340.8" class="st5" width="7.5" height="2"/>
			</g>
		</g>
		<g>
			<g>
				<rect x="382.2" y="337.7" class="st5" width="7.5" height="2"/>
			</g>
			<g>
				<rect x="382.2" y="340.8" class="st5" width="7.5" height="2"/>
			</g>
		</g>
		<g>
			<g>
				<rect x="394" y="337.7" class="st5" width="7.5" height="2"/>
			</g>
			<g>
				<rect x="394" y="340.8" class="st5" width="7.5" height="2"/>
			</g>
		</g>
		<g>
			<g>
				<rect x="353.3" y="348.6" class="st3" width="53" height="12.6"/>
			</g>
			<g>
				<g>
					<rect x="356.6" y="350.8" class="st7" width="13.6" height="2"/>
				</g>
				<g>
					<rect x="356.6" y="354.1" class="st7" width="13.6" height="2"/>
				</g>
				<g>
					<rect x="356.6" y="357.3" class="st7" width="13.6" height="2"/>
				</g>
			</g>
			<g>
				<g>
					<rect x="372.4" y="350.8" class="st7" width="13.6" height="2"/>
				</g>
				<g>
					<rect x="372.4" y="354.1" class="st7" width="13.6" height="2"/>
				</g>
				<g>
					<rect x="372.4" y="357.3" class="st7" width="13.6" height="2"/>
				</g>
			</g>
			<g>
				<g>
					<rect x="388.3" y="350.8" class="st7" width="13.6" height="2"/>
				</g>
				<g>
					<rect x="388.3" y="354.1" class="st7" width="13.6" height="2"/>
				</g>
				<g>
					<rect x="388.3" y="357.3" class="st7" width="13.6" height="2"/>
				</g>
			</g>
		</g>
	</g>
</g>
<g>
	<g>
		<g>
			<g>
				<polygon class="st11" points="306.4,241.6 283.6,246.4 256,116.8 278.8,112.1 				"/>
			</g>
		</g>
		<g>
			<g>
				<path class="st12" d="M242.7,96.4c0.5,2.6-1.1,5.2-3.8,5.8l-12.8,2.7c-2.7,0.5-5.2-1.2-5.8-3.8L218,89.8
					c-0.6-2.7,1.1-5.2,3.8-5.8l12.8-2.7c2.6-0.6,5.2,1.1,5.8,3.8L242.7,96.4z"/>
			</g>
		</g>
		<g>
			<g>
				<path class="st0" d="M309.8,241.3c0.1,0.6-0.3,1.2-0.8,1.3l-27.4,5.7c-0.6,0.1-1.2-0.3-1.3-0.8l-0.7-3.5
					c-0.1-0.6,0.3-1.2,0.8-1.3l27.4-5.7c0.6-0.1,1.2,0.3,1.3,0.8L309.8,241.3z"/>
			</g>
		</g>
		<g>
			<g>
				<path class="st13" d="M331.9,10.2c0,0-25.7,33.5-50.3,38.6c-13.1,2.7-11,2.3-11,2.3l13.1,62.9c0,0,1.4-0.3,9.7-2
					c27.3-5.7,63.4,17.8,63.4,17.8s-11.3-29.6-17.7-60.2C332.8,39.1,331.9,10.2,331.9,10.2z"/>
			</g>
		</g>
		<g>
			<g>
				<path class="st14" d="M243.8,56.7c-13.9,2.9-22.8,16.5-19.9,30.4l2.6,12.6c2.9,13.9,16.5,22.8,30.4,19.9l27.2-5.7L271,51
					L243.8,56.7z"/>
			</g>
		</g>
		<g>
			<g>
				
					<rect x="285.6" y="136.1" transform="matrix(0.979 -0.2037 0.2037 0.979 -23.1552 61.7654)" class="st12" width="5.9" height="14.5"/>
			</g>
		</g>
		<g>
			<g>
				<g>
					<path class="st14" d="M332.9,10c-0.2-0.1-0.4-0.1-0.6-0.1c-3.9,0.8-1.5,28.3,5.4,61.4c6.5,31.5,14.8,56.7,18.9,58.4
						c0.2,0.1,0.4,0.1,0.6,0.1c3.9-0.8,1.5-28.3-5.4-61.4C345.3,36.9,337,11.7,332.9,10L332.9,10z"/>
				</g>
			</g>
		</g>
	</g>
</g>
<g>
	<g>
		<g>
			<path class="st15" d="M323.1,189.1c0.5,2.4-1.1,4.8-3.6,5.2l-32.5,6.1c-2.4,0.5-4.8-1.2-5.2-3.6l0,0c-0.5-2.4,1.1-4.8,3.6-5.2
				l32.5-6.1C320.3,185,322.7,186.6,323.1,189.1L323.1,189.1z"/>
		</g>
	</g>
	<g>
		<g>
			<path class="st15" d="M264.7,184.1c-6.3,1.2-10.5,7.3-9.3,13.6l3.5,18.6c1.2,6.3,7.3,10.5,13.6,9.3l18.6-3.5
				c6.3-1.2,10.5-7.3,9.3-13.6l-3.5-18.6c-1.2-6.3-7.3-10.5-13.6-9.3L264.7,184.1z"/>
		</g>
	</g>
	<g>
		<g>
			<path class="st15" d="M318.3,212.5c0.5,2.4-1.2,4.8-3.6,5.2l-20.8,3.9c-2.4,0.5-4.8-1.2-5.2-3.6l0,0c-0.5-2.4,1.2-4.8,3.6-5.2
				l20.8-3.9C315.5,208.4,317.9,210.1,318.3,212.5L318.3,212.5z"/>
		</g>
	</g>
	<g>
		<g>
			<path class="st15" d="M322.2,200.6c0.5,2.4-1.2,4.8-3.6,5.2l-32.5,6.1c-2.4,0.4-4.8-1.2-5.2-3.6l0,0c-0.5-2.4,1.2-4.8,3.6-5.2
				l32.5-6.1C319.4,196.6,321.7,198.2,322.2,200.6L322.2,200.6z"/>
		</g>
	</g>
	<g>
		<g>
			<path class="st15" d="M316.9,178.9c0.5,2.4-1.1,4.8-3.6,5.2l-25.8,4.8c-2.4,0.5-4.8-1.2-5.2-3.6l0,0c-0.5-2.4,1.2-4.8,3.6-5.2
				l25.8-4.8C314.1,174.9,316.5,176.5,316.9,178.9L316.9,178.9z"/>
		</g>
	</g>
	<g>
		<g>
			<path class="st15" d="M229.3,228.9l45.7-8.5c4.3-0.8,7.1-4.9,6.3-9.2l-2.4-12.6c-0.8-4.3-4.9-7.1-9.2-6.3l-45.7,8.5L229.3,228.9z
				"/>
		</g>
	</g>
	<g>
		<g>
			
				<rect x="226.8" y="196.5" transform="matrix(0.983 -0.1837 0.1837 0.983 -35.6553 47.1762)" class="st1" width="19.9" height="39"/>
		</g>
	</g>
	<g>
		<g>
			<polygon class="st16" points="201.9,243.7 243.8,236 236.1,194.8 201.9,201.3 			"/>
		</g>
	</g>
</g>
<g>
	<path class="st17" d="M396.4,31.6c-18.6,0-33.7,13-33.7,29.1c0,9.6,5.4,18.2,13.8,23.5l-4.7,12l11.6-8.7c4,1.4,8.4,2.2,13,2.2
		c18.6,0,33.7-13,33.7-29.1C430.1,44.6,415,31.6,396.4,31.6z"/>
</g>
<g id="XMLID_395_">
	<path class="st1" d="M393.9,67.6l-1.6-16v-7.4h6.6v7.4l-1.5,16H393.9z M392.6,75.7v-6.1h6.1v6.1H392.6z"/>
</g>
<g>
	<g>
		<g>
			<path class="st13" d="M428.3,97.1c-0.3-0.1-0.6-0.2-0.8-0.4c-1.2-0.9-1.4-2.7-0.5-3.9c7.3-9.5,12-20.3,14.7-27.7
				c0.5-1.4,2.1-2.2,3.5-1.7c1.4,0.5,2.2,2.1,1.7,3.5c-2.8,7.8-7.8,19.2-15.5,29.2C430.6,97.1,429.4,97.5,428.3,97.1z"/>
		</g>
	</g>
	<g class="st18">
		<g>
			<path class="st13" d="M440.1,100.1c-0.3-0.1-0.6-0.2-0.8-0.4c-1.2-0.9-1.4-2.7-0.5-3.9c5.4-7,8.9-15,10.8-20.5
				c0.5-1.4,2.1-2.2,3.5-1.7c1.4,0.5,2.2,2.1,1.7,3.5c-2.1,5.8-5.8,14.4-11.7,22C442.4,100.1,441.2,100.4,440.1,100.1z"/>
		</g>
	</g>
	<g class="st19">
		<g>
			<path class="st13" d="M451,103.2c-0.3-0.1-0.6-0.2-0.8-0.4c-1.2-0.9-1.4-2.7-0.5-3.9c3.9-5,6.4-10.8,7.8-14.8
				c0.5-1.4,2.1-2.2,3.5-1.7c1.4,0.5,2.2,2.1,1.7,3.5c-1.6,4.3-4.3,10.7-8.7,16.3C453.3,103.2,452,103.6,451,103.2z"/>
		</g>
	</g>
</g>
<g>
	<g>
		<g>
			<path class="st13" d="M388,18.9c0.2,0.2,0.3,0.5,0.4,0.8c0.5,1.4-0.3,3-1.8,3.5c-11.4,3.7-21.4,10-27.8,14.6
				c-1.2,0.9-2.9,0.6-3.8-0.6c-0.9-1.2-0.6-2.9,0.6-3.8c6.7-4.9,17.2-11.5,29.3-15.4C386.1,17.6,387.3,18,388,18.9z"/>
		</g>
	</g>
	<g class="st18">
		<g>
			<path class="st13" d="M379.9,9.8c0.2,0.2,0.3,0.5,0.4,0.8c0.5,1.4-0.3,3-1.8,3.5c-8.4,2.7-15.8,7.4-20.5,10.8
				c-1.2,0.9-2.9,0.6-3.8-0.6c-0.9-1.2-0.6-3,0.6-3.8c5-3.6,12.9-8.6,22-11.6C378,8.5,379.2,8.9,379.9,9.8z"/>
		</g>
	</g>
	<g class="st19">
		<g>
			<path class="st13" d="M372.7,1.1c0.2,0.2,0.3,0.5,0.4,0.8c0.5,1.4-0.3,3-1.8,3.5c-6.1,2-11.4,5.3-14.8,7.8
				c-1.2,0.9-2.9,0.6-3.8-0.6c-0.9-1.2-0.6-3,0.6-3.8c3.7-2.7,9.6-6.4,16.3-8.6C370.8-0.2,372,0.2,372.7,1.1z"/>
		</g>
	</g>
</g>
<g>
	<g>
		<g>
			<path class="st16" d="M451,272h-3.9c-0.5,0-1-0.4-1-1c0-0.5,0.4-1,1-1h3.9c0.5,0,1,0.4,1,1C452,271.6,451.5,272,451,272z"/>
		</g>
	</g>
	<g>
		<g>
			<path class="st16" d="M440,272h-14.6c-0.5,0-1-0.4-1-1c0-0.5,0.4-1,1-1H440c0.5,0,1,0.4,1,1C440.9,271.6,440.5,272,440,272z"/>
		</g>
	</g>
	<g>
		<g>
			<path class="st16" d="M457.9,283.7h-17.7c-0.5,0-1-0.4-1-1c0-0.5,0.4-1,1-1h17.7c0.5,0,1,0.4,1,1
				C458.9,283.2,458.4,283.7,457.9,283.7z"/>
		</g>
	</g>
</g>
<g id="XMLID_1533_">
	<g id="XMLID_1535_">
		<path id="XMLID_1560_" class="st20" d="M323.2,418.5H167.6c-2.1,0-3.8-1.7-3.8-3.8v-90.8c0-2.1,1.7-3.8,3.8-3.8h155.6
			c2.1,0,3.8,1.7,3.8,3.8v90.8C327,416.8,325.3,418.5,323.2,418.5z"/>
		<g id="XMLID_1537_">
			<rect id="XMLID_1557_" x="180.8" y="384.1" class="st21" width="129.2" height="4.2"/>
			<rect id="XMLID_1554_" x="180.8" y="384.1" class="st21" width="70.2" height="4.2"/>
			<rect id="XMLID_1553_" x="201.3" y="380.6" class="st22" width="3.9" height="11.2"/>
			<path id="XMLID_1552_" class="st22" d="M219.6,330.3l44.6-2.6c6.3,0,11.5,5.8,11.5,12.9v21.6c0,7.1-5.2,12.9-11.5,12.9l-44.6-2.6
				c-6.3,0-11.5-5.2-11.5-11.5v-19.2C208.1,335.4,213.3,330.3,219.6,330.3z"/>
			<polygon id="XMLID_1549_" class="st23" points="231.7,339 252.2,351.3 231.7,363.7 			"/>
			<path id="XMLID_1544_" class="st22" d="M292.1,395.2h4.3v1.7H294v2.5h-1.9V395.2L292.1,395.2z M294,401.3v2.5h2.4v1.7h-4.3v-4.2
				H294L294,401.3z M303.2,395.2h4.3v4.2h-1.9v-2.5h-2.4V395.2L303.2,395.2z M307.5,401.3v4.2h-4.3v-1.7h2.4v-2.5H307.5z"/>
			<g id="XMLID_1540_">
				<polygon id="XMLID_1543_" class="st22" points="251.1,395.6 246.1,397.9 243.2,397.9 243.2,402.7 246.1,402.7 251.1,405.1 				
					"/>
				<path id="XMLID_1542_" class="st1" d="M253.2,395.2c1.5,0.6,2.4,1.8,2.9,3.1c0.2,0.7,0.4,1.4,0.3,2.2c0,0.7-0.2,1.5-0.4,2.1
					c-0.5,1.3-1.4,2.3-2.8,2.8l-0.2-0.7c1.1-0.4,1.9-1.3,2.4-2.4c0.2-0.6,0.4-1.2,0.4-1.9s-0.1-1.3-0.3-1.9
					c-0.4-1.1-1.2-2.1-2.5-2.6L253.2,395.2z"/>
				<path id="XMLID_1541_" class="st1" d="M253.2,396.9c0.4,0.3,0.8,0.7,1.1,1.1l0,0c0.4,0.6,0.6,1.4,0.6,2.2c0,0.8-0.2,1.6-0.6,2.3
					c-0.3,0.5-0.7,0.9-1.2,1.2l-0.4-0.6c0.4-0.2,0.7-0.6,0.9-0.9c0.3-0.6,0.5-1.2,0.5-1.9c0-0.7-0.2-1.3-0.5-1.8l0,0
					c-0.2-0.4-0.5-0.7-0.9-0.9L253.2,396.9z"/>
			</g>
			<g id="XMLID_1539_">
				<path class="st1" d="M195.8,401.4c0-0.8,0.1-1.5,0.3-2c0.2-0.5,0.4-0.9,0.7-1.2c0.3-0.3,0.7-0.4,1.2-0.4c0.4,0,0.7,0.1,1,0.2
					c0.3,0.1,0.5,0.4,0.7,0.6c0.2,0.3,0.3,0.6,0.4,1c0.1,0.4,0.2,0.9,0.2,1.6c0,0.8-0.1,1.5-0.2,2c-0.2,0.5-0.4,0.9-0.7,1.2
					c-0.3,0.3-0.7,0.4-1.3,0.4c-0.7,0-1.2-0.2-1.6-0.7C196,403.6,195.8,402.7,195.8,401.4z M196.7,401.4c0,1.1,0.1,1.9,0.4,2.3
					c0.3,0.4,0.6,0.6,1,0.6c0.4,0,0.7-0.2,1-0.6c0.3-0.4,0.4-1.1,0.4-2.3c0-1.1-0.1-1.9-0.4-2.3c-0.3-0.4-0.6-0.6-1-0.6
					c-0.4,0-0.7,0.2-0.9,0.5C196.8,399.5,196.7,400.2,196.7,401.4z"/>
				<path class="st1" d="M201.6,400.7v-1h1v1H201.6z M201.6,404.8v-1h1v1H201.6z"/>
				<path class="st1" d="M203.8,401.4c0-0.8,0.1-1.5,0.2-2c0.2-0.5,0.4-0.9,0.7-1.2c0.3-0.3,0.7-0.4,1.2-0.4c0.4,0,0.7,0.1,1,0.2
					c0.3,0.1,0.5,0.4,0.7,0.6c0.2,0.3,0.3,0.6,0.4,1c0.1,0.4,0.2,0.9,0.2,1.6c0,0.8-0.1,1.5-0.2,2c-0.2,0.5-0.4,0.9-0.7,1.2
					c-0.3,0.3-0.7,0.4-1.3,0.4c-0.7,0-1.2-0.2-1.6-0.7C204,403.6,203.8,402.7,203.8,401.4z M204.7,401.4c0,1.1,0.1,1.9,0.4,2.3
					s0.6,0.6,1,0.6c0.4,0,0.7-0.2,1-0.6c0.3-0.4,0.4-1.1,0.4-2.3c0-1.1-0.1-1.9-0.4-2.3c-0.3-0.4-0.6-0.6-1-0.6
					c-0.4,0-0.7,0.2-0.9,0.5C204.8,399.5,204.7,400.2,204.7,401.4z"/>
				<path class="st1" d="M209.2,401.4c0-0.8,0.1-1.5,0.2-2c0.2-0.5,0.4-0.9,0.7-1.2c0.3-0.3,0.7-0.4,1.2-0.4c0.4,0,0.7,0.1,1,0.2
					c0.3,0.1,0.5,0.4,0.7,0.6c0.2,0.3,0.3,0.6,0.4,1c0.1,0.4,0.2,0.9,0.2,1.6c0,0.8-0.1,1.5-0.2,2c-0.2,0.5-0.4,0.9-0.7,1.2
					c-0.3,0.3-0.7,0.4-1.3,0.4c-0.7,0-1.2-0.2-1.6-0.7C209.4,403.6,209.2,402.7,209.2,401.4z M210.1,401.4c0,1.1,0.1,1.9,0.4,2.3
					s0.6,0.6,1,0.6c0.4,0,0.7-0.2,1-0.6c0.3-0.4,0.4-1.1,0.4-2.3c0-1.1-0.1-1.9-0.4-2.3c-0.3-0.4-0.6-0.6-1-0.6
					c-0.4,0-0.7,0.2-0.9,0.5C210.2,399.5,210.1,400.2,210.1,401.4z"/>
				<path class="st1" d="M214.1,404.9l2-7.1h0.7l-2,7.1H214.1z"/>
				<path class="st1" d="M217.2,403l0.8-0.1c0.1,0.5,0.3,0.8,0.5,1c0.2,0.2,0.5,0.3,0.9,0.3c0.4,0,0.7-0.1,1-0.4
					c0.3-0.3,0.4-0.6,0.4-1c0-0.4-0.1-0.7-0.4-1c-0.3-0.3-0.6-0.4-1-0.4c-0.2,0-0.4,0-0.6,0.1l0.1-0.7c0.1,0,0.1,0,0.1,0
					c0.4,0,0.7-0.1,1-0.3c0.3-0.2,0.4-0.5,0.4-0.9c0-0.3-0.1-0.6-0.3-0.8c-0.2-0.2-0.5-0.3-0.8-0.3c-0.3,0-0.6,0.1-0.8,0.3
					c-0.2,0.2-0.4,0.5-0.4,0.9l-0.8-0.1c0.1-0.6,0.3-1,0.7-1.3c0.4-0.3,0.8-0.5,1.4-0.5c0.4,0,0.7,0.1,1,0.2
					c0.3,0.2,0.6,0.4,0.7,0.7c0.2,0.3,0.2,0.6,0.2,0.9c0,0.3-0.1,0.6-0.2,0.8c-0.2,0.2-0.4,0.4-0.7,0.6c0.4,0.1,0.7,0.3,0.9,0.6
					c0.2,0.3,0.3,0.7,0.3,1.1c0,0.6-0.2,1.1-0.7,1.5c-0.4,0.4-1,0.6-1.7,0.6c-0.6,0-1.1-0.2-1.5-0.5
					C217.5,404,217.3,403.5,217.2,403z"/>
				<path class="st1" d="M223.1,400.7v-1h1v1H223.1z M223.1,404.8v-1h1v1H223.1z"/>
				<path class="st1" d="M228.5,404.8h-0.8v-5.4c-0.2,0.2-0.5,0.4-0.8,0.6c-0.3,0.2-0.6,0.3-0.9,0.4v-0.8c0.5-0.2,0.9-0.5,1.2-0.8
					c0.4-0.3,0.6-0.6,0.8-0.9h0.5V404.8z"/>
				<path class="st1" d="M233.3,404.8v-1.7h-3v-0.8l3.1-4.5h0.7v4.5h0.9v0.8h-0.9v1.7H233.3z M233.3,402.3v-3.1l-2.2,3.1H233.3z"/>
			</g>
			<polygon id="XMLID_1538_" class="st22" points="180.8,395.5 188.8,400.3 180.8,405.1 			"/>
		</g>
	</g>
</g>
<g>
	<path class="st24" d="M441.7,116.2c14.8,7.6,16.8,24.8,16.9,39.8c0.1,7.9,0.7,17.5-5.7,23.4c-5.5,5-13.7,5.9-20.8,5.9
		c-9.4,0-19.3-1.8-27-7.4c-3.9-2.8-8.6-7.5-10.1-12.2c-1.6-5-2.3-10.4-2.3-15.6c0-10.6,3.7-21,11.4-28.4
		C414.1,112.1,429.6,110,441.7,116.2z"/>
	<g id="XMLID_33_">
		<g>
			<path class="st1" d="M409.7,143.9c0-1.1,0.1-2.4,0-3.5c0.9,0.2,1.9,0.2,2.8,0.1c0.7-0.1,1.6-0.1,2.3-0.4c0.2,0,0.4-0.1,0.5-0.3
				c0,0,0,0,0,0c0.2-0.2,0.2-0.4,0-0.6c-0.3-4.5-0.2-11.1,3.4-14.1c3.7-3,10.4-2.2,14.9-1.6c-1.1,1.8-0.8,4.3-1.3,6.3
				c-2.1-0.9-5.5-0.6-7,0.9c-2,2.2-1.1,5.7-1,8.4c0,0.5,0.5,0.7,0.9,0.5c1.3,0.4,2.9,0.4,4.3,0.4c1,0,2.1,0,3.1-0.2
				c-0.4,0.9-0.4,1.9-0.4,2.9c-0.1,1.4-0.1,2.7,0,4.1c0,0-0.1,0-0.1,0c-2.5,0.8-5-0.2-7.5,0.1c-0.3,0-0.4,0.4-0.3,0.6
				c-1.7,3.3-0.9,8.5-0.8,12c0.1,4.9,0.5,10.2,0.1,15c-1.5-0.2-3.1,0.1-4.7,0c-1.3-0.1-2.6-0.2-3.8,0.3c-0.1-4.7,0-9.5,0.2-14.2
				c0.1-4.4,0.7-9-0.1-13.4c0-0.3-0.4-0.3-0.6-0.2c-0.1-0.1-0.2-0.3-0.5-0.3c-1,0-2,0.1-3,0.1c-0.5,0-1.1-0.1-1.6,0
				C409.4,146,409.7,144.9,409.7,143.9z"/>
			<path class="st1" d="M409.7,140.4c0.1,1.1,0.1,2.4,0,3.5c0,1-0.3,2.1-0.1,3.1c0.5-0.1,1.2,0.1,1.6,0c1,0,2-0.1,3-0.1
				c0.3,0,0.4,0.1,0.5,0.3c0.2-0.1,0.6-0.1,0.6,0.2c0.7,4.4,0.2,9,0.1,13.4c-0.1,4.7-0.2,9.5-0.2,14.2c1.3-0.5,2.5-0.4,3.8-0.3
				c1.5,0.1,3.1-0.1,4.7,0c0.4-4.9,0.1-10.2-0.1-15c-0.1-3.4-0.9-8.7,0.8-12c-0.1-0.2-0.1-0.6,0.3-0.6c2.5-0.4,5,0.6,7.5-0.1
				c0,0,0.1,0,0.1,0c-0.1-1.4-0.1-2.7,0-4.1c0.1-1,0.1-2,0.4-2.9c-1,0.1-2.1,0.2-3.1,0.2c-1.4,0-3,0-4.3-0.4c-0.4,0.1-0.9,0-0.9-0.5
				c-0.1-2.6-1.1-6.2,1-8.4c1.5-1.6,4.9-1.9,7-0.9c0.5-2,0.2-4.5,1.3-6.3c-4.6-0.6-11.3-1.4-14.9,1.6c-3.6,2.9-3.8,9.6-3.4,14.1
				c0.1,0.2,0.2,0.4,0,0.6c0,0,0,0,0,0c-0.1,0.2-0.3,0.3-0.5,0.3c-0.7,0.3-1.5,0.3-2.3,0.4C411.5,140.6,410.6,140.6,409.7,140.4z
				 M414.6,147.9c-0.1,0.1-0.2,0.1-0.3,0.1c-1.1,0.1-2.3,0.2-3.5,0.1c-0.5,0-1.2-0.1-1.6-0.4c-0.2,0.1-0.5,0-0.7-0.2
				c-0.6-0.9-0.2-2.3-0.2-3.3c0.1-1.3-0.2-3,0.4-4.2c-0.1-0.3,0.1-0.7,0.5-0.6c0.9,0.1,1.9,0.1,2.8,0c0.5,0,1.1-0.2,1.7-0.3
				c-0.5-2.3,0.1-5.3,0.4-7.6c0.4-2.8,1.2-5.5,3.5-7.4c2.1-1.7,4.7-2.3,7.3-2.4c3-0.1,6.7-0.7,9.3,0.9c0.1,0.1,0.1,0.1,0.2,0.2
				c0.2,0,0.3,0.2,0.3,0.4c-0.2,1.4-0.5,2.8-0.6,4.2c-0.1,1,0,2.1-0.4,3c-0.1,0.2-0.2,0.3-0.4,0.4c0,0.1-0.1,0.2-0.2,0.2
				c-2.3,0.6-5.5-1.4-7.1,1.3c-1.2,2-0.4,4.7-0.4,6.9c1.4-0.3,2.9-0.1,4.4-0.1c1.1,0,2.5-0.4,3.4,0.4c0.1,0.1,0.1,0.2,0.1,0.3
				c1,2.1,0,5.4-0.1,7.5c0,0.3-0.2,0.4-0.4,0.5c-0.1,0.1-0.2,0.3-0.4,0.4c-2.3,0.7-5.1,0.4-7.5-0.1c0.3,4.5-0.2,9.2-0.2,13.7
				c0,4.4,0.7,9.1,0,13.4c0,0.1-0.1,0.2-0.2,0.3c0,0.1-0.1,0.2-0.3,0.3c-1.7,0.4-3.7,0.4-5.4,0.2c-1.3-0.1-2.9,0.1-4.1-0.4
				c-0.3,0.1-0.6,0-0.6-0.4c-0.1-4.8-0.4-9.5-0.3-14.3C414.2,156.5,413.9,152.1,414.6,147.9z"/>
		</g>
		<g>
		</g>
	</g>
</g>
<g>
	<path class="st24" d="M195.7,32.2c14.8,7.6,16.7,24.8,16.9,39.7c0.1,7.9,0.7,17.5-5.7,23.4c-5.5,5-13.6,5.9-20.8,5.8
		c-9.4,0-19.3-1.8-27-7.4c-3.9-2.8-8.6-7.5-10.1-12.2c-1.6-5-2.3-10.4-2.3-15.6c0-10.6,3.7-21,11.4-28.4
		C168.1,28.1,183.6,26,195.7,32.2z"/>
	<g>
		<g id="XMLID_46_">
			<g>
				<path class="st1" d="M192.4,51.3c-0.9,0-0.9,1.4,0,1.4S193.3,51.3,192.4,51.3z M159,64.1c-0.1-0.4-0.3-0.8-0.4-1.2
					c0.3,0.2,0.6,0.3,0.8,0.4c0.9,0.4,2.2,0.9,3.1,0.5c0.2-0.1,0.2-0.3,0.1-0.5c0.2-0.2,0.3-0.5,0.1-0.8c-1.3-1.4-2.4-1.9-3.2-4
					c-0.6-1.6-0.6-3.4-0.5-5c0.2-2,0.9-3,1.9-4.7c0.3-0.5,0.4-0.3,0.4-0.6c1.9,3.3,4.6,5.7,7.9,7.6c3.2,1.8,6.9,4.2,10.7,4.5
					c0.4,0.3,1,0.1,1-0.4c0-0.1,0-0.1,0-0.2c-1.4-3.8,1.4-8.6,4.6-10.5c2.6-1.5,5.6-1.8,8.4-0.5c1.3,0.6,2.2,1.8,3.6,2.1
					c0,0,0,0,0,0c0.6,0.1,1.2-0.1,1.8-0.3c1.3-0.4,2.6-0.9,3.8-1.7c0.1,0,0.1-0.1,0.2-0.1c-0.2,0.3-0.4,0.7-0.6,1
					c-0.9,1.4-1.7,2.4-3,3.5c-0.4,0.3,0.1,0.7,0.4,0.6c0.7,0.4,1.6,0.2,2.4,0.1c0.7-0.1,1.4-0.3,1.9-0.6c-0.6,0.5-1.2,1.1-1.8,1.8
					c-0.5,0.5-1,1.1-1.5,1.5c-0.2,0.2-0.4,0.3-0.6,0.4c-0.3-0.1-0.6,0-0.7,0.3c0,0.1,0,0.2,0,0.2c0,0.1-0.1,0.1-0.2,0.2
					c-0.1,0.1,0,0.3,0.1,0.4c-1.3,7.8-3.4,16-9.8,21.2c-3.4,2.8-7.1,4.6-11.3,5.9c-1,0.3-2.2,0.6-3.3,0.9c-0.6,0-1.2,0.1-1.8,0.2
					c-0.5,0.1-1.1,0.1-1.6,0.2c-1.8-0.3-3.7-0.5-5.6-0.6c0,0,0,0,0,0c-0.4-0.1-0.7-0.1-1.1-0.1c-2.7-0.4-4.9-1.1-7.3-2
					c1.9,0.3,4.3-0.3,5.9-0.8c1.6-0.5,3.1-1.2,4.7-1.9c0.8-0.4,1.3-0.5,1.7-1.2c0.3,0.1,0.7,0,1-0.1c0.3-0.1,0.3-0.6,0-0.7
					c-1.7-0.8-3.5-1.7-5.2-2.8c-1.5-1-2.5-2.3-3.5-3.7c0.4,0.1,0.8,0.1,1.1,0.1c0.6,0,2.5-0.1,2.6-0.8c0,0,0-0.1,0-0.1c0,0,0,0,0,0
					c0.1-0.2,0.1-0.5-0.1-0.6c-1.8-1.1-3.6-2.3-5.1-3.8C160.1,66.4,159.4,65.4,159,64.1z"/>
				<path class="st1" d="M158.5,62.8c0.1,0.4,0.3,0.8,0.4,1.2c0.5,1.3,1.1,2.3,2.1,3.3c1.5,1.5,3.3,2.7,5.1,3.8
					c0.2,0.1,0.2,0.4,0.1,0.6c0,0,0,0,0,0c0,0,0,0.1,0,0.1c-0.1,0.7-2.1,0.7-2.6,0.8c-0.3,0-0.7,0-1.1-0.1c1,1.4,1.9,2.7,3.5,3.7
					c1.6,1.1,3.4,1.9,5.2,2.8c0.3,0.1,0.3,0.6,0,0.7c-0.4,0.2-0.7,0.2-1,0.1c-0.4,0.7-0.9,0.8-1.7,1.2c-1.5,0.7-3.1,1.4-4.7,1.9
					c-1.6,0.5-3.9,1.1-5.9,0.8c2.4,1,4.6,1.6,7.3,2c0.4,0.1,0.7,0.1,1.1,0.1c0,0,0,0,0,0c1.9,0.1,3.8,0.2,5.6,0.6
					c0.5,0,1.1-0.1,1.6-0.2c0.6-0.1,1.2-0.2,1.8-0.2c1.2-0.3,2.3-0.6,3.3-0.9c4.3-1.3,7.9-3.1,11.3-5.9c6.4-5.2,8.5-13.4,9.8-21.2
					c-0.1-0.1-0.2-0.2-0.1-0.4c0.1-0.1,0.1-0.1,0.2-0.2c0-0.1,0-0.2,0-0.2c0.1-0.3,0.4-0.4,0.7-0.3c0.2-0.1,0.4-0.3,0.6-0.4
					c0.6-0.5,1-1,1.5-1.5c0.6-0.6,1.2-1.2,1.8-1.8c-0.6,0.3-1.2,0.5-1.9,0.6c-0.8,0.1-1.7,0.3-2.4-0.1c-0.4,0.1-0.8-0.3-0.4-0.6
					c1.3-1.1,2.1-2.1,3-3.5c0.2-0.3,0.4-0.7,0.6-1c-0.1,0-0.1,0.1-0.2,0.1c-1.2,0.7-2.5,1.3-3.8,1.7c-0.5,0.2-1.2,0.4-1.8,0.3
					c0,0,0,0,0,0c-1.4-0.3-2.3-1.4-3.6-2.1c-2.8-1.4-5.8-1.1-8.4,0.5c-3.2,1.9-6,6.7-4.6,10.5c0,0.1,0,0.1,0,0.2
					c0.1,0.5-0.6,0.7-1,0.4c-3.8-0.2-7.5-2.6-10.7-4.5c-3.3-1.9-6.1-4.3-7.9-7.6c-0.1,0.3-0.2,0.1-0.4,0.6c-1,1.7-1.7,2.7-1.9,4.7
					c-0.2,1.7-0.1,3.5,0.5,5c0.8,2.1,1.8,2.5,3.2,4c0.2,0.2,0.1,0.6-0.1,0.8c0.1,0.1,0.1,0.4-0.1,0.5c-0.9,0.4-2.3-0.1-3.1-0.5
					C159.1,63.1,158.8,63,158.5,62.8z M164.7,87c-3.1-0.6-6.1-1.7-8.3-3.7c0,0,0,0,0,0c-0.1-0.1-0.2-0.1-0.3-0.2c0,0,0-0.1,0-0.1
					c2.5-0.2,5-0.1,7.5-0.9c2-0.6,4-1.5,5.9-2.5c-0.2-0.1-0.4-0.2-0.6-0.3c-1.2-0.7-2.4-1.4-3.5-2.2c-1.4-1-3.6-3-3.8-4.9
					c-0.2-0.2-0.4-0.4-0.4-0.6c0-0.1,0.1-0.2,0.2-0.2c1,0.4,1.7,0.6,2.8,0.5c0.2,0,0.5-0.1,0.8-0.2c-0.4-0.2-0.8-0.4-1.3-0.8
					c-1.1-0.9-2.3-1.7-3.3-2.7c-1.6-1.6-3.1-4.1-3-6.4c-0.1-0.2-0.1-0.4-0.1-0.6c0-0.1,0.1-0.1,0.2-0.1c0.3,0.1,0.5,0.3,0.7,0.5
					c0.4,0.3,1,0.6,1.5,0.8c0.5,0.2,1.1,0.2,1.7,0.4c-4.5-3.5-5.7-11.8-0.5-15.2c0.2-0.1,0.3,0,0.3,0.2c0.1-0.1,0.2-0.1,0.3,0
					c1.2,1.2,2.1,2.6,3.3,3.7c1.6,1.4,3.4,2.6,5.3,3.6c2,1,4.2,2.3,6.3,3.1c0.9,0.3,1.9,0.5,2.8,0.8c-1-4.1,2.1-8.9,5.4-10.9
					c2.3-1.4,5.1-1.9,7.7-1.2c1.6,0.5,4.1,1.5,4.8,3.2c1-0.3,1.9-0.5,2.8-0.8c1.4-0.5,2.7-1.2,4.1-1.7c0.1,0,0.2,0.1,0.2,0.2
					c-0.8,1.6-1.7,4.1-3.3,5.4c0.6-0.1,1.1-0.2,1.6-0.3c1-0.2,1.9-0.7,3-0.7c0.1,0,0.2,0.2,0.1,0.2c-0.2,0.1-0.3,0.2-0.5,0.3
					c-0.9,1.1-1.6,2.4-2.5,3.5c-0.5,0.6-1.2,1.4-2,1.8c-0.4,9.3-4.3,18.3-12,23.8c-4.1,3-8.7,4.6-13.6,5.6c-0.1,0-0.2,0-0.3,0.1
					c-0.1,0-0.2,0-0.3,0c-0.6,0.1-1.3,0-1.8,0.1c-0.4,0.1-0.9,0.1-1.3,0c-0.1,0-0.3,0-0.4,0.1c0,0,0,0,0,0c-0.9,0-1.8-0.1-2.5-0.2
					C167.4,87.5,165.9,87.6,164.7,87z"/>
			</g>
			<g>
			</g>
		</g>
	</g>
</g>
<g>
	<path class="st24" d="M189.1,283.9c15,7.7,16.9,25.1,17.1,40.1c0.1,8,0.7,17.7-5.8,23.6c-5.5,5.1-13.8,5.9-21,5.9
		c-9.5,0-19.5-1.8-27.3-7.5c-3.9-2.9-8.6-7.6-10.2-12.3c-1.6-5-2.4-10.5-2.4-15.8c0-10.7,3.7-21.2,11.5-28.6
		C161.2,279.8,176.9,277.6,189.1,283.9z"/>
	<g>
		<g id="XMLID_38_">
			<g>
				<path class="st1" d="M187,323.3c1.7-0.2,2.4,1.9,2.1,3.3c-0.5,2-2.5,0.6-3.9,1.4c0-0.9,0-1.9,0.3-2.7
					C185.8,324.5,186.1,323.5,187,323.3z"/>
				<path class="st24" d="M189.5,331.4c-0.3,1.4-0.4,3-2.2,3.2c-0.1,0-0.2,0-0.2,0c-1.3,0-2.2-1.2-2.6-2.4c-0.3-0.7-0.4-1.5-0.6-2.4
					c-0.3-2.2,0-4.7,1.1-6.3c1.6-2.3,4.6-1.3,5.1,1.3c0.2,1,0.3,2.9-0.7,3.6c-1,0.7-2.8,0.1-4,0.1c0,0,0,0,0,0
					c0,0.6,0.1,1.3,0.2,1.9c0.1,0.6,0.2,1.2,0.4,1.7c0.5,1.1,1.8,1.7,2.7,0.2c0.1-0.3,0.2-0.9,0.2-1.1
					C189,330.8,189.6,331,189.5,331.4z M189.1,326.6c0.3-1.4-0.4-3.5-2.1-3.3c-0.9,0.1-1.3,1.1-1.5,1.9c-0.2,0.9-0.3,1.8-0.3,2.7
					C186.6,327.2,188.6,328.6,189.1,326.6z"/>
				<path class="st1" d="M181.7,298.6c0.3,1.1,0.2,2.3,0.3,3.5c0.1,1.2,0.2,2.4,0.2,3.6c0,0.6-0.3,2.4,0.1,2.9
					c0.6,0.8,1.7-0.2,2.7-0.8c0-1.2,0.1-2.5,0.1-3.6c-0.1-1.7-0.7-4,0.6-5.4c0.4-0.4,1-0.2,1.2,0.3c0.6,1.4,0.4,3.6,0.4,5
					c0,1.8-0.1,3.8-0.3,5.6c-0.1,0.7-0.9,0.9-1.4,0.3c-0.2-0.3-0.4-0.7-0.5-1.1c-1.5,1.4-4.1,1.8-4.9-0.6c-0.5-1.5-0.1-3.3-0.2-4.9
					c-0.1-1.6-0.5-4.1,1-5.2C181.3,298.3,181.6,298.3,181.7,298.6z"/>
				<path class="st1" d="M177.7,325.7c0.1-0.4,0.4-0.9,0.6-1.3c0.5,0,1.1,0,1.6-0.1c0.5,0.3,0.2,4,0.3,4.5c0,0.9,0.2,1.8,0.2,2.7
					c0,2.2-2.1,1.2-3,0.2c-0.1-0.1-0.1-0.1-0.2-0.1c0.1-1.6,0.1-3.1,0.1-4.7C177.4,326.6,177.5,326.1,177.7,325.7z"/>
				<path class="st1" d="M187.3,334.6c1.8-0.2,1.9-1.9,2.2-3.2c0.1-0.4-0.5-0.5-0.6-0.1c-0.1,0.3-0.1,0.9-0.2,1.1
					c-0.9,1.5-2.2,0.9-2.7-0.2c-0.2-0.5-0.3-1.1-0.4-1.7c-0.1-0.6-0.2-1.2-0.2-1.9c0,0,0,0,0,0c1.2,0.1,2.9,0.7,4-0.1
					c1-0.7,0.9-2.6,0.7-3.6c-0.4-2.6-3.5-3.6-5.1-1.3c-1.1,1.6-1.3,4.1-1.1,6.3l-2.1,0c-0.1-0.5-0.1-0.9-0.1-1.3
					c-0.1-1.5,0-5.4-2.2-5.7c-1.1-0.2-1.8,0.7-2.3,1.7c-0.1-1.8-0.2-3.6-0.4-5.3c0-0.3-0.3-0.4-0.5-0.4l0-3.3c1.2,0,2.5,0.1,3.7,0.1
					c4.5,0,9.4-0.6,13.9,0.1c7.3,1.1,6.7,7.7,6.9,13.2c-0.6,1.9-0.6,3.9-1.8,5.7c-2.2,3.3-5.8,3.4-9.5,3.5c-0.8,0-1.6,0-2.4,0l0-3.4
					C187.1,334.6,187.2,334.6,187.3,334.6z"/>
				<path class="st24" d="M177.4,331.8c0.9,1,3,1.9,3-0.2c0-0.9-0.2-1.8-0.2-2.7c0-0.5,0.3-4.1-0.3-4.5c-0.5,0-1.1,0-1.6,0.1
					c-0.3,0.4-0.5,0.8-0.6,1.3c-0.1,0.4-0.3,0.9-0.4,1.3c0,1.6,0,3.2-0.1,4.7C177.3,331.7,177.4,331.8,177.4,331.8z M177.1,332.9
					c-0.1,0.6-0.1,1.2-0.2,1.8c-0.1,0.7-1.2,0.4-1.2-0.1c-0.3-2.4,0.1-5,0-7.5c-0.1-2.7-0.4-5.4,0.3-8c0-0.2,0.2-0.3,0.4-0.3
					c0.2,0,0.5,0.2,0.5,0.4c0.2,1.7,0.3,3.5,0.4,5.3c0.4-1,1.1-1.9,2.3-1.7c2.2,0.3,2.1,4.2,2.2,5.7c0,0.4,0.1,0.9,0.1,1.3
					c0.2,1.6,0.3,3.5-1.3,4.2C179.4,334.6,177.7,334,177.1,332.9z"/>
				<path class="st1" d="M173.2,299.6c-0.4,0.5-0.6,1.3-0.7,1.9c-0.3,1.5-0.3,3.3-0.1,4.7c0.1,0.5,0.1,1.3,0.5,1.6
					c0.6,0.1,1.3,0.2,1.9,0.3c0.6-0.5,0.8-1.1,0.8-1.7c0.2-1.1,0.1-2.4,0-3.4c-0.1-1.1-0.2-2.2-0.6-3.2c-0.2-0.5-0.4-0.9-0.6-1.3
					c0,0,0,0,0,0C174.1,299,173.6,299.1,173.2,299.6z M170.1,301.3c0.2-1.6,2.1-5.6,4.3-3.6c0-0.1,0.1-0.3,0.3-0.3
					c5.1-1,3.1,17.3-2.7,12.2C169.9,307.7,169.8,303.8,170.1,301.3z"/>
				<path class="st24" d="M166.9,333.8c-0.7-0.9-0.6-2.3-0.6-3.4c0.1-2.3-0.1-4.7,0.3-7c0.1-0.5,0.9-0.5,1,0c0.4,2.3,0.3,4.7,0.2,7
					c0,0.6-0.2,1.8,0.1,2.3c0.8,1.5,2.4-0.2,3.1-1c-0.1-2.5,0.2-5,0.3-7.5c0-0.7,0.9-0.7,1.2-0.1c0.5,1.3,0.2,2.8,0.1,4.1
					c-0.1,1.9-0.1,3.8,0.2,5.8c0.3,0.9-1.3,1.3-1.5,0.4c-0.1-0.6-0.2-1.1-0.2-1.6C170.5,334.2,168.1,335.4,166.9,333.8z"/>
				<path class="st1" d="M165.2,297.8c0.4-1.4,0.8-2.8,1.3-4.1c0.4-1.2,2.4-1,2.3,0.3c-0.1,2.2-1.2,4.1-2.2,6.1
					c-0.3,0.5-0.7,1.8-1.4,2.2c0.3,0.8,0.3,1.7,0.3,2.6c0,1.6-0.2,3.2-0.3,4.8c-0.1,1.2-1.9,1.2-2,0c-0.1-1.6-0.3-3.2-0.3-4.8
					c0-0.7,0-1.4,0.2-2.1c-0.3-0.1-0.5-0.3-0.6-0.5c-0.6-1.2-1.1-2.5-1.6-3.8c-0.6-1.3-0.9-2.9-1.2-4.3c-0.3-1.3,1.6-2.1,2.3-0.9
					c0.9,1.4,1,3.1,1.6,4.6c0.2,0.6,0.6,1.3,0.9,1.9C164.7,299.2,165,298.5,165.2,297.8z"/>
				<path class="st24" d="M164.8,319.6c0.2,0.9-1.6,1.3-3.6,1.2c0.9,4.3,1,9.4,0.6,13.7c-0.1,1.3-1.8,0.6-1.6-0.2
					c0.1-4.4-0.6-9.3,0.3-13.6c-1.7-0.1-3.3-0.5-3.8-1.1c-0.1-0.2,0-0.4,0.2-0.5c1-0.2,2,0,3,0c1.4,0,2.8-0.3,4.1-0.1
					C164.4,319.1,164.7,319.2,164.8,319.6z"/>
				<path class="st1" d="M161.2,320.8c2,0,3.9-0.3,3.6-1.2c-0.1-0.4-0.4-0.5-0.8-0.6c-1.4-0.1-2.8,0.1-4.1,0.1c-1,0-2-0.2-3,0
					c-0.2,0-0.3,0.3-0.2,0.5c0.4,0.6,2.1,1,3.8,1.1c-0.9,4.3-0.2,9.2-0.3,13.6c-0.1,0.8,1.5,1.5,1.6,0.2
					C162.2,330.3,162.2,325.1,161.2,320.8z M173.6,338.2c-5,0.2-10.2,0.1-15.2,0.1c-2.7,0-6,0-8.1-2.1c-1-1-1.5-2.2-1.9-3.5
					c0-0.1,0.1-0.1,0.1-0.3c-0.1-2.7-0.6-5.2-0.5-7.9c0.1-2.2,0.4-4.5,2-6.2c1.5-1.5,3.4-1.8,5.3-2.4c3.4,0,7-0.8,10.4-0.8
					c3.5,0,7.1,0.2,10.6,0.3l0,3.3c-0.2,0-0.4,0.1-0.4,0.3c-0.6,2.6-0.3,5.3-0.3,8c0.1,2.4-0.3,5,0,7.5c0.1,0.6,1.1,0.9,1.2,0.1
					c0.1-0.6,0.2-1.2,0.2-1.8c0.6,1.2,2.2,1.8,3.4,1.2c1.6-0.7,1.4-2.6,1.3-4.2l2.1,0c0.1,0.9,0.3,1.7,0.6,2.4
					c0.4,1.1,1.3,2.4,2.6,2.4l0,3.4C182.6,338.1,178.1,338,173.6,338.2z M166.4,330.4c0,1.1-0.1,2.5,0.6,3.4
					c1.2,1.6,3.5,0.4,4.3-1.2c0,0.6,0.1,1.1,0.2,1.6c0.2,0.9,1.7,0.5,1.5-0.4c-0.3-1.9-0.3-3.8-0.2-5.8c0.1-1.3,0.4-2.8-0.1-4.1
					c-0.2-0.6-1.1-0.5-1.2,0.1c-0.1,2.5-0.4,5-0.3,7.5c-0.7,0.8-2.3,2.5-3.1,1c-0.3-0.6-0.1-1.7-0.1-2.3c0.1-2.3,0.2-4.7-0.2-7
					c-0.1-0.5-1-0.5-1,0C166.3,325.7,166.4,328.1,166.4,330.4z"/>
				<path class="st1" d="M158.4,338.2c5,0.1,10.2,0.1,15.2-0.1c4.5-0.2,9-0.1,13.5-0.1c0.8,0,1.6,0,2.4,0c3.7-0.1,7.3-0.2,9.5-3.5
					c1.2-1.8,1.2-3.7,1.8-5.7c-0.2-5.6,0.4-12.1-6.9-13.2c-4.5-0.7-9.3-0.1-13.9-0.1c-1.2,0-2.5,0-3.7-0.1
					c-3.5-0.1-7.1-0.3-10.6-0.3c-3.3,0-7,0.8-10.4,0.8c-1.9,0.5-3.8,0.9-5.3,2.4c-1.6,1.6-1.9,3.9-2,6.2c-0.1,2.7,0.3,5.2,0.5,7.9
					c0,0.1,0,0.2-0.1,0.3c0.4,1.3,0.9,2.5,1.9,3.5C152.3,338.2,155.6,338.2,158.4,338.2z M153.1,315.1c5.2-1,10.4-1,15.7-1
					c6.6,0,13.3,0.2,19.9,0.3c4,0,8.2-0.2,10.9,3.2c2.3,3,2.6,6.8,2.1,10.4c0,0.1,0.1,0.1,0.1,0.3c-0.1,4.9-1.8,9.5-7.1,10.6
					c-3.5,0.7-7.4,0.4-10.9,0.3c-4.1-0.1-8.2,0.1-12.3,0.1c-4.1,0-8.3-0.1-12.4,0c-2.6,0-5.6,0.1-7.9-1.2c-1.7-0.9-4.6-4.3-4-6.6
					c-0.4-1.3-0.4-2.7-0.5-3.9c-0.1-2.4-0.2-5.2,0.7-7.5c0.9-2.6,3-4.3,5.5-4.8C152.9,315.2,153,315.1,153.1,315.1z"/>
			</g>
			<g>
			</g>
		</g>
	</g>
</g>
<g>
	<path class="st24" d="M82.7,323.8c14.6,7.5,16.6,24.5,16.7,39.3c0.1,7.8,0.7,17.3-5.6,23.1c-5.4,5-13.5,5.8-20.5,5.8
		c-9.3,0-19.1-1.8-26.7-7.4c-3.9-2.8-8.5-7.5-9.9-12.1c-1.6-4.9-2.3-10.3-2.3-15.5c0-10.5,3.6-20.7,11.3-28
		C55.4,319.7,70.7,317.6,82.7,323.8z"/>
	<g>
		<g id="XMLID_44_">
			<g>
				<path class="st1" d="M77.4,347.1c0.6-0.3,1.5-0.1,2.2,0c1.3,0.1,2.6-0.1,3.9,0c0-2.4,0-4.8,0-7.2c-0.9,0.2-1.8,0.2-2.7,0.2
					c-1.2,0.1-2.3,0.2-3.5,0.1C77.3,342.5,77.3,344.8,77.4,347.1z M77.2,339.7c1.2-0.1,2.4-0.2,3.5-0.3c1-0.1,2.2-0.3,3.2,0.1
					c0.1,0,0.1,0.2,0,0.2c0,0,0,0,0,0.1c0,2.5,0,4.9,0,7.4c0,0.2-0.2,0.3-0.4,0.2c-1.9,0.8-4.6,0.4-6.6,0.2c-0.1,0-0.1-0.1-0.1-0.2
					c-0.1,0-0.2-0.1-0.2-0.3c0.1-2.4,0.1-4.7,0.1-7.1c0-0.1,0-0.2,0-0.3c0,0,0,0,0,0C76.9,339.6,77.1,339.6,77.2,339.7z"/>
				<path class="st1" d="M72.6,351.6c-2.9-3.1-6.6-2.6-9.6-0.6c0,0,0,0,0,0c-2.1,2.4-3.2,5.5-2,8.6c1.3,3.4,4.7,5.5,8.3,4.4
					C74.3,362.6,76.2,355.6,72.6,351.6z M60.5,352.6c2.7-4.3,8.8-5.5,12.5-1.9c3.8,3.7,2.7,9.8-1.4,12.8c-3.3,2.5-8.6,1.7-10.9-1.9
					c-1.8-2.9-1.5-6.5,0.3-9.1c-0.1,0.1-0.2,0.2-0.3,0.3C60.6,352.9,60.4,352.7,60.5,352.6z"/>
				<path class="st1" d="M80.8,339.4c-1.2,0.1-2.4,0.1-3.5,0.3c-0.1-0.1-0.3-0.1-0.3,0.1c0,0,0,0,0,0c-0.1,0.1-0.1,0.2,0,0.3
					c0,2.4-0.1,4.7-0.1,7.1c0,0.2,0.1,0.2,0.2,0.3c0,0.1,0,0.2,0.1,0.2c2,0.2,4.6,0.6,6.6-0.2c0.2,0.1,0.4,0,0.4-0.2
					c0-2.4,0-4.9,0-7.4c0,0,0,0,0-0.1c0.1-0.1,0.1-0.2,0-0.2C82.9,339.1,81.8,339.3,80.8,339.4z M73,350.6
					c-3.7-3.6-9.9-2.4-12.5,1.9c-0.1,0.2,0.1,0.4,0.3,0.2c0.1-0.1,0.2-0.2,0.3-0.3c-1.9,2.6-2.1,6.2-0.3,9.1
					c2.3,3.6,7.5,4.4,10.9,1.9C75.7,360.4,76.9,354.3,73,350.6z M52.5,335.3c3.2-0.6,6.4,0.3,9.5-0.2c3.1,0.2,6.2,0.4,9.3,0.4
					c1,0,1.9,0,2.9-0.1c2-0.1,4-0.2,6-0.1c0,0,0,0,0,0c0.2,0.1,0.5,0.1,0.8,0.1c2,0.2,3.4-0.2,5.2,1.1c3.7,2.8,2.8,8.6,2.7,12.6
					c-0.1,4.4,0,8.7-0.1,13.1c0,1.9,0.1,4,0.2,6c0,0,0.1,0,0.1,0c0,0,0.1,0,0.1,0c-0.5,3.1-0.3,6.1-2.8,8.5
					c-2.6,2.5-6.5,3.2-9.9,3.4c-6.8,0.5-13.7-0.7-20.5-0.3c-1.8-0.4-3.8-0.2-5.6-0.9c-2.5-1.1-3.8-3.4-4.5-6c0,0,0,0,0,0
					c0-0.1,0-0.2-0.1-0.3c-0.7-3.3-0.7-6.8-0.8-10.2c-0.1-3.1-0.2-6.1,0-9.2c0.2-3.1,0.6-6.2,0.5-9.3c0.1,0,0.1-0.1,0.1-0.2
					C46.3,339.5,48.1,336.2,52.5,335.3z M53,351.9c-1.1,0.1-2.4,0.1-3.5,0.5c0-0.1-0.2-0.1-0.2,0c0,0,0,0,0,0c0,0-0.1,0-0.1,0
					c-0.1,0-0.1,0.1,0,0.2c0,0,0.1,0,0.1,0.1c0.2,4-0.4,8-0.3,12c0.1,2.6,0,5.9,1.3,8.3c0.3,0.5,0.6,0.8,0.9,1.2
					c0.1-0.1,0.1-0.1,0.2-0.1c0.5,0.8,1.3,1.1,2.3,1.2c2.9,0.4,6,0.1,8.9,0.2c3.6,0.1,7.3-0.4,10.9-0.2c0.1,0,0.3,0,0.4,0
					c0-0.1,0-0.1,0-0.2c1.5,0.4,3.2,0.3,4.7,0.3c1.4-0.1,3.2,0.3,4.4-0.6c0,0,0-0.1,0-0.1c0.2-0.2,0.4-0.3,0.6-0.6
					c1.5-1.9,1.2-4.9,1.2-7.2c0.2-4.8,0.9-9.6,0.5-14.4c0-0.2-0.2-0.2-0.3-0.1c0,0,0,0,0,0c-1.1-0.3-2.3-0.1-3.4-0.1
					c-1,0-2,0-2.9,0.2c-0.1-0.3-0.4-0.2-0.4,0.1c0,0-0.1,0-0.1,0c-0.1,0-0.1,0.1,0,0.2c0.1,0,0.1,0,0.2,0c0.2,1.3,0.6,2.5,0.9,3.8
					c0.2,1.2,0.1,2.2-0.1,3.3c-0.1,0-0.1,0-0.2,0c-0.3,0.9-0.7,1.8-1.2,2.7c-1.8,3.1-5.1,5.5-8.6,6.3c-4.6,1-9.3-0.6-12-4.6
					c-2-3-1.7-6-1.6-9.2c0-0.2,0-0.5,0-0.7c0-0.1,0-0.3,0-0.3c0-0.1,0-0.2,0-0.3c0-0.3,0-0.6,0-0.8c0,0,0,0,0.1,0c0-0.1,0-0.2,0-0.3
					s0-0.2,0-0.3C55.1,351.8,53.9,351.9,53,351.9z"/>
				<path class="st1" d="M49.1,364.8c-0.1-4,0.6-8,0.3-12c0,0-0.1,0-0.1-0.1c-0.1,0-0.1-0.2,0-0.2c0,0,0.1,0,0.1,0c0,0,0,0,0,0
					c0-0.1,0.2-0.1,0.2,0c1.1-0.4,2.4-0.5,3.5-0.5c0.9-0.1,2-0.1,2.9,0.2c0,0.1,0,0.2,0,0.3s0,0.2,0,0.3c0,0-0.1,0-0.1,0
					c0,0.3,0,0.6,0,0.8c0,0.1,0,0.2,0,0.3c0,0,0,0.2,0,0.3c0,0.3,0,0.5,0,0.7c-0.2,3.2-0.4,6.2,1.6,9.2c2.6,4,7.4,5.6,12,4.6
					c3.5-0.8,6.8-3.3,8.6-6.3c0.5-0.9,0.9-1.7,1.2-2.7c0.1,0,0.1,0,0.2,0c0.2-1.1,0.3-2.1,0.1-3.3c-0.2-1.3-0.6-2.5-0.9-3.8
					c-0.1,0-0.1,0-0.2,0c-0.1,0-0.1-0.1,0-0.2c0,0,0.1,0,0.1,0c0-0.3,0.3-0.4,0.4-0.1c0.9-0.2,1.9-0.2,2.9-0.2
					c1.1,0,2.3-0.2,3.4,0.1c0,0,0,0,0,0c0.1-0.1,0.3,0,0.3,0.1c0.4,4.8-0.3,9.6-0.5,14.4c-0.1,2.2,0.3,5.3-1.2,7.2
					c-0.2,0.2-0.4,0.4-0.6,0.6c0,0,0,0.1,0,0.1c-1.2,0.9-3.1,0.5-4.4,0.6c-1.5,0.1-3.2,0.1-4.7-0.3c0,0.1,0,0.1,0,0.2
					c-0.1,0-0.3,0-0.4,0c-3.6-0.2-7.3,0.4-10.9,0.2c-2.9-0.1-6,0.2-8.9-0.2c-1-0.1-1.8-0.4-2.3-1.2c-0.1,0.1-0.1,0.1-0.2,0.1
					c-0.3-0.3-0.7-0.7-0.9-1.2C49.1,370.7,49.1,367.3,49.1,364.8z M49.7,352.9c0.5,2.6,0.1,5.2,0.2,7.8c0,2.9,0,5.9,0.3,8.8
					c0.2,1.5,0.5,2.8,1.3,3.8c0,0,0.1,0,0.1,0.1c1.2,1.9,5.1,1.1,7,1.2c2.5,0,5,0.2,7.5,0.1c2.3-0.1,4.6-0.3,6.9-0.2c0,0,0,0,0,0
					c1.5-0.5,3.5,0,5.1,0c1.3,0,2.6-0.1,3.9-0.1c0.9-0.3,1.6-1,2-2.3c0.8-2.8,0.3-6.5,0.4-9.4c0.2-3.4,0.4-6.7,0.8-10
					c-1,0.4-2.1,0.3-3.1,0.3c-1,0-2,0.1-3-0.1c0.8,2.2,1.7,4.9,0.7,7.1c0,0,0,0.1,0.1,0.1c-0.6,1.5-1.5,2.9-2.4,4.1
					c-2.2,2.9-6,5.1-9.6,5.5c-9.8,0.9-15.2-7.8-12.6-16.7c-0.8,0-1.6-0.2-2.3-0.1C52,352.8,50.7,353.2,49.7,352.9z"/>
				<path class="st1" d="M45.2,342.9c0-2.8,1.8-5.4,4.2-7c3-1.9,7.4-1.9,11-1.4c2.7-0.3,5.6,0.2,8.2,0.2c3,0,6.1-0.2,9.1-0.2
					c1.1,0,2,0.1,3,0.2c0,0,0,0.1-0.1,0.1c1.1,0.1,2.4-0.3,3.5-0.1c1.3,0.2,2.5,0.8,3.4,1.7c2.3,2.5,2.3,6.7,2.3,9.9
					c-0.1,5.7,0.2,11.3,0,17c0,1.5,0.1,3.2,0.1,4.9c0,0,0,0-0.1,0c0.2,6.3-2.8,11-9.4,12.3c-3.5,0.7-7.1,0.6-10.6,0.4
					c-4.1-0.1-8.2-0.2-12.3-0.4c0,0.1-0.1,0.1-0.1,0.1c-3.2-0.3-6.4,0.3-9.1-1.9c-1.5-1.2-2.7-3-2.9-4.9c0,0.1-0.1,0.1-0.1,0.2
					c-1-2.7-1-5.9-1.1-8.7C44.2,358.1,44.2,350.1,45.2,342.9z M45.2,362.6c0.1,3.4,0.1,6.9,0.8,10.2c0,0.1,0,0.2,0.1,0.3
					c0,0,0,0,0,0c0.7,2.6,2,4.9,4.5,6c1.8,0.8,3.7,0.6,5.6,0.9c6.8-0.4,13.7,0.7,20.5,0.3c3.4-0.2,7.4-1,9.9-3.4
					c2.5-2.5,2.3-5.5,2.8-8.5c0,0-0.1,0-0.1,0c0,0-0.1,0-0.1,0c-0.1-2-0.2-4.1-0.2-6c0-4.4-0.1-8.7,0.1-13.1c0.1-4,1-9.8-2.7-12.6
					c-1.8-1.4-3.3-0.9-5.2-1.1c-0.3,0-0.6-0.1-0.8-0.1c0,0,0,0,0,0c-2-0.1-4,0-6,0.1c-1,0-2,0.1-2.9,0.1c-3.1,0-6.2-0.2-9.3-0.4
					c-3.2,0.5-6.4-0.4-9.5,0.2c-4.5,0.9-6.2,4.3-6.6,8.6c0,0.1-0.1,0.2-0.1,0.2c0.1,3.1-0.3,6.2-0.5,9.3
					C45.1,356.4,45.2,359.5,45.2,362.6z"/>
			</g>
			<g>
			</g>
		</g>
	</g>
</g>
<g>
	<path class="st24" d="M371.8,359.5c14.5,7.4,16.4,24.3,16.6,38.9c0.1,7.7,0.7,17.2-5.6,22.9c-5.4,4.9-13.4,5.8-20.3,5.7
		c-9.2,0-18.9-1.8-26.5-7.3c-3.8-2.8-8.4-7.4-9.9-12c-1.6-4.9-2.3-10.2-2.3-15.3c0-10.4,3.6-20.5,11.2-27.8
		C344.7,355.5,359.9,353.4,371.8,359.5z"/>
	<g id="XMLID_43_">
		<g>
			<path class="st1" d="M352.1,408.7c-0.2,0.7-1.2,3.7-1.8,3.9c-3.3,1.2-1.9-4.4-1.8-5.3c0.5-3.1,1.3-6.2,2-9.3
				c0.5-2,1.5-4.1,1.1-6.2c0-0.1-0.1-0.2-0.3-0.2c-0.6-1.9-0.5-4.2,0.2-6c0.6-1.5,2.8-4.6,4.9-4c2.7,0.8,2.5,3.3,1.9,5.6
				c-0.8,3-3.1,6.7-2,9.8c0,0.1,0.1,0.2,0.2,0.2c0.1,0.3,0.3,0.6,0.5,0.9l-2.2,2.1c-0.1,0-0.2,0.1-0.3,0.2
				C353.7,403.1,353.1,406,352.1,408.7z"/>
			<path class="st1" d="M346,383.5c-1,2.5-1.4,5.1-0.5,7.7c0.3,0.8,0.8,2.5,1.7,2.8c-0.3,0.3-0.4,0.8-0.5,1.2
				c-0.2,0.6-0.4,1.1-0.6,1.7c-6.7-3.1-6-11.9-2.7-17.2c3-4.9,8.1-7,13.6-8c1.8-0.2,3.5-0.1,5.7,0.3c2.9,0.7,5.6,1.8,7.7,3.9
				c2.1,2.1,3.2,4.8,4,7.7c0.8,2.9,0.2,5.5,0.4,8.3c0,0.3-0.1,0.6-0.2,0.8c-0.5,1.9-1.5,3.7-2.4,5.5c-1.3,1.9-3,3.3-5.5,4.4
				c-3.3,1.5-10,2.7-11.7-1.9c0,0,0,0,0-0.1c0-0.2-0.1-0.3-0.3-0.3l2.2-2.1c0.6,0.8,1.5,1.2,2.9,1.4c3.2,0.3,5.5-1.6,7-4.3
				c0.8-1.5,2-4.3,2.5-7.2c0-0.5,0.1-1,0.1-1.5c0.1-2.4-1.3-5.1-2.5-6.9c-1.6-2.3-4-4.1-6.8-4.3c0,0,0,0,0-0.1
				C354.1,374.7,348.6,377.3,346,383.5z"/>
			<path class="st1" d="M348.1,380.9c-1.8,2.4-2.9,5.3-2.4,8.3c0.2,1.2,1,3.7,2,4.4c0.1,0.1,0.1,0.3,0,0.4c0,0.3,0,0.6-0.1,0.8
				c0,0.2-0.1,0.5-0.2,0.7c0,0,0,0.1,0,0.1c-0.2,0.6-0.4,1.2-0.8,1.7c-0.1,0.1-0.2,0.1-0.3,0.1c-0.1,0.1-0.2,0.2-0.4,0.2
				c-6.7-1.8-6.3-11.7-4-16.6c2.4-5,8.3-9.6,14.1-9.8c4.9-1,10.5,0.2,14.3,3.6c5.1,4.5,6.1,11.8,4.9,18.2c0,0,0,0-0.1,0.1
				c-0.1,0.3-0.1,0.5-0.2,0.8c-0.4,1.2-0.9,2.3-1.6,3.3c-2,3.7-5.1,6.2-9.8,7.1c-2.3,0.4-7.7,0-8.5-3c-0.7,3.2-4,14.5-6.8,13.3
				c-1.8-0.8-0.3-6.6-0.1-7.8c0.4-2.2,0.8-4.3,1.2-6.4c0.3-1.8,1.2-3.6,1.6-5.5c0.2-0.9,0.3-1.8,0.2-2.7c0,0,0,0,0,0
				c-2.7-3.7,0.8-11.3,5.6-11c1.8,0.1,2.4,1.6,2.5,3.2c0.2,4.3-3,8.4-2.2,12.7c2.2,3.9,7.6,1.9,9.4-1.7c0.8-1.5,1.3-3.3,1.8-4.9
				c0.2-0.7,0.4-1.6,0.6-2.6c0,0,0,0,0,0c0.2-2.6-0.7-5.1-2.1-7.3c-1.7-2.7-4-4.1-7.2-4.4c0,0,0,0-0.1,0c-1.2-0.1-2.4-0.2-3.6,0.1
				C352.6,376.5,350,378.3,348.1,380.9z M347.2,394c-1-0.3-1.4-2-1.7-2.8c-0.9-2.6-0.6-5.2,0.5-7.7c2.6-6.2,8-8.7,14.2-8.1
				c0,0,0,0,0,0.1c2.8,0.2,5.2,2,6.8,4.3c1.3,1.8,2.6,4.5,2.5,6.9c0,0.5,0,1-0.1,1.5c-0.6,2.9-1.7,5.7-2.5,7.2
				c-1.5,2.7-3.8,4.6-7,4.3c-1.3-0.1-2.3-0.6-2.9-1.4c-0.2-0.3-0.3-0.6-0.5-0.9c-0.1,0-0.2-0.1-0.2-0.2c-1.1-3.2,1.2-6.8,2-9.8
				c0.6-2.2,0.8-4.7-1.9-5.6c-2-0.6-4.3,2.5-4.9,4c-0.7,1.9-0.8,4.1-0.2,6c0.1,0,0.2,0,0.3,0.2c0.5,2.1-0.6,4.1-1.1,6.2
				c-0.7,3.1-1.6,6.1-2,9.3c-0.1,0.9-1.6,6.5,1.8,5.3c0.7-0.2,1.6-3.3,1.8-3.9c1-2.7,1.6-5.5,2.4-8.3c0-0.1,0.1-0.2,0.3-0.2
				c0.1,0,0.3,0.1,0.3,0.3c0,0,0,0,0,0.1c1.7,4.5,8.4,3.3,11.7,1.9c2.5-1.1,4.2-2.5,5.5-4.4c0.9-1.8,1.9-3.5,2.4-5.5
				c0.1-0.3,0.1-0.6,0.2-0.8c-0.1-2.8,0.4-5.4-0.4-8.3c-0.8-2.9-1.8-5.5-4-7.7c-2.1-2.1-4.8-3.3-7.7-3.9c-2.2-0.5-3.9-0.5-5.7-0.3
				c-5.4,1-10.5,3.1-13.6,8c-3.3,5.3-4.1,14.2,2.7,17.2c0.2-0.6,0.5-1.1,0.6-1.7C346.9,394.8,347,394.3,347.2,394z"/>
		</g>
		<g>
		</g>
	</g>
</g>
<g>
	<path class="st24" d="M464.1,296.5c14.8,7.6,16.8,24.9,17,39.8c0.1,7.9,0.7,17.5-5.7,23.4c-5.5,5-13.7,5.9-20.8,5.9
		c-9.4,0-19.3-1.8-27.1-7.4c-3.9-2.8-8.6-7.6-10.1-12.2c-1.6-5-2.3-10.4-2.3-15.7c0-10.6,3.7-21,11.4-28.4
		C436.4,292.4,451.9,290.3,464.1,296.5z"/>
	<g>
		<g id="XMLID_42_">
			<g>
				<path class="st1" d="M443.8,321c1.4,0.3,2.9,0.2,4.2,0.1c1.4,0,2.9,0.1,4.3-0.2c0,0.7,0,1.3,0.1,2c0.1,0.6,0,1.3,0.3,1.9
					c0.1,0.2,0.3,0.2,0.4,0c0.1-0.1,0.1-0.3,0.1-0.4c6.1-5.2,16.2-4.7,18.2,4.4c0.4,2,0.5,4.2,0.5,6.5c-0.4,1-0.2,2.7-0.2,3.5
					c0.1,3.3,0.1,6.7,0.1,10c0,0.1,0,0.1,0,0.1h0c0,0,0-0.1,0-0.1c0-0.2-0.1-0.4-0.1-0.6c-1.3-0.1-2.6,0-3.8-0.1
					c-1.5,0-3.1,0.1-4.6,0.4c0,0,0-0.1,0-0.1c-0.8-3.9,2.5-21-6.1-19.7c-7.9,1.2-3.8,14.5-4.8,19.7c-3-0.1-5.8-0.5-8.9-0.1
					c0.3-1.4,0.2-3,0.2-4.4c0-2.9,0.1-5.7,0.2-8.6C444.3,330.6,444.4,325.6,443.8,321z"/>
				<path class="st1" d="M443.8,321c0.6,4.7,0.5,9.7,0.3,14.4c-0.1,2.9-0.2,5.7-0.2,8.6c0,1.4,0.1,3-0.2,4.4c3-0.3,5.8,0,8.9,0.1
					c1-5.2-3.1-18.5,4.8-19.7c8.6-1.3,5.3,15.8,6.1,19.7c0,0,0,0.1,0,0.1c1.5-0.3,3.1-0.5,4.6-0.4c1.2,0,2.5-0.1,3.8,0.1
					c0,0.2,0.1,0.4,0.1,0.6c0,0.1,0,0.1,0,0.1c0,0.1,0.1,0.2,0.1,0.2c-1.2,0.2-2.4,0-3.6-0.1c-1.9-0.1-3.8,0.4-5.6,0.1
					c-0.1,0-0.2-0.1-0.2-0.2c0-0.1-0.1-0.1-0.1-0.2c-0.7-3,0-6.7-0.1-9.8c-0.1-1.3-0.1-2.6-0.2-3.8c-0.3-3.2-2.1-6.7-6.1-5.2
					c-3.9,1.4-2.9,8.4-2.8,11.5c0,1.2,0.1,2.4,0.1,3.6c0.1,0,0.1,0,0.1,0.1c0.2,1.4-0.1,2.9-0.3,4.2c0,0.1-0.2,0.1-0.2,0
					c0-0.1,0-0.2-0.1-0.4c0,0,0,0-0.1,0c-1.4,0.4-2.8-0.1-4.2-0.2c-1.8-0.1-3.6,0.2-5.4,0c-0.2,0.1-0.4,0-0.5-0.3
					c-0.5-1.7,0.1-3.9,0.1-5.7c0-3.1,0.2-6.2,0.3-9.3c0.1-2.9,0-5.8-0.2-8.8c-0.1-1.3-0.3-2.8,0.3-4c-0.1,0-0.1,0-0.2,0
					c-0.2-0.1-0.2-0.4,0-0.4c1.6-0.3,3.3-0.1,4.9-0.1c1.6,0,3.5-0.3,5.1,0.2c0.2,0.1,0.2,0.3,0,0.3c-0.1,0-0.1,0-0.2,0.1
					c0.1,0.7,0.2,1.4,0.3,2.1c0,0.4,0.1,0.7,0.1,1.1c4.6-4.6,12-5.3,16.5-0.1c2.5,2.9,2.8,5.9,2.9,9.6c0,0.9,0.1,1.8,0.1,2.8
					c-0.1,0-0.2,0.1-0.2,0.1c-0.3,4.1-0.2,8.3-0.1,12.4c0,0.3-0.4,0.4-0.6,0.1c0,0,0-0.1,0-0.1c0-3.4,0-6.7-0.1-10
					c0-0.8-0.2-2.5,0.2-3.5c0-2.2-0.1-4.4-0.5-6.5c-2-9.2-12.1-9.6-18.2-4.4c0,0.2-0.1,0.3-0.1,0.4c-0.1,0.2-0.3,0.2-0.4,0
					c-0.3-0.6-0.2-1.2-0.3-1.9c-0.1-0.7-0.1-1.3-0.1-2c-1.4,0.2-2.9,0.1-4.3,0.2C446.7,321.1,445.2,321.2,443.8,321z"/>
				<path class="st1" d="M430.6,308.5c1.7-0.7,3.5-1.3,5.3-0.4c2.5,1.2,2.9,5.1,1.3,7.1c-1.7,2.1-4.9,1.9-7,0.4
					C427.8,313.8,428,310,430.6,308.5z"/>
				<path class="st1" d="M432.6,321c1.8,0,3.6,0.3,5.2-0.3c-0.2,1.6-0.2,3.3-0.3,4.9c0,1.5-0.1,3,0.1,4.5c-0.3,2.6-0.4,5.2-0.5,7.8
					c-0.2,3.5-0.5,7.1-0.3,10.7c-1.7,0-3.4-0.1-5.2-0.3c-0.6-0.1-1.8-0.3-2.5,0.1c0-1.2,0-2.5-0.1-3.7c0,0,0,0,0.1,0
					c0-1,0.2-2,0.2-3.1c0.2-2.5,0.1-5.1,0.2-7.6c0.2-4.4,0.5-8.7-0.1-13C430.4,321.3,431.7,321,432.6,321z"/>
				<path class="st1" d="M431.6,348.4c1.8,0.2,3.4,0.3,5.2,0.3c-0.2-3.5,0.1-7.1,0.3-10.7c0.2-2.6,0.2-5.2,0.5-7.8
					c-0.2-1.5-0.1-3-0.1-4.5c0-1.7,0-3.3,0.3-4.9c-1.7,0.6-3.5,0.3-5.2,0.3c-0.9,0-2.2,0.3-3.2,0.1c0.6,4.4,0.3,8.7,0.1,13
					c-0.1,2.5,0,5.1-0.2,7.6c-0.1,1-0.2,2.1-0.2,3.1c0,0-0.1,0-0.1,0c0.1,1.2,0.1,2.4,0.1,3.7C429.8,348.1,431,348.3,431.6,348.4z
					 M432.1,320.3c1.9-0.1,3.8,0,5.8-0.2c0.2,0,0.3,0.1,0.3,0.3c0,0,0,0,0,0c0.3,1.7,0.2,3.5,0.1,5.2c0,1.3,0,2.7-0.1,4
					c0.3,2.7,0,5.6-0.2,8.3c-0.2,3.6-0.3,7.1-0.5,10.7c0.1,0,0.2,0,0.4,0c0.4,0,0.4,0.6,0,0.6c-0.2,0-0.5,0-0.7,0c0,0,0,0,0,0
					c-1.6,0-3.2,0.1-4.8,0c-0.9-0.1-2.4,0.3-3.3-0.1c-0.2,0.2-0.6,0.1-0.7-0.3c-0.1-1.3-0.1-2.6,0.1-3.8c-0.1,0-0.1,0-0.2,0.1
					c-0.1-3.1,0.3-6.3,0.3-9.3c0-2.5,0.3-4.9,0.3-7.4c0-2.5-0.3-5-0.1-7.6c0-0.1,0-0.1,0.1-0.1c0,0,0,0,0-0.1c0,0,0,0,0,0
					c0-0.1,0-0.1,0.1-0.1C429.6,320.1,431.2,320.3,432.1,320.3z"/>
				<path class="st1" d="M428.4,309c2.4-2.4,7-3.5,9.4-0.5c1.7,2.1,1.3,6.1-1,7.7c-2.4,1.7-6.5,1.4-8.3-1c-1.3-1.8-1.2-4.2,0.1-5.9
					C428.4,309.3,428.3,309.1,428.4,309z M435.9,308c-1.8-0.9-3.6-0.3-5.3,0.4c-2.6,1.6-2.8,5.3-0.3,7.1c2,1.5,5.3,1.7,7-0.4
					C438.9,313.1,438.4,309.2,435.9,308z"/>
			</g>
			<g>
			</g>
		</g>
	</g>
</g>
<g>
	<path class="st24" d="M62,96.3c13.6,7,15.4,22.8,15.6,36.5c0.1,7.3,0.6,16.1-5.2,21.5c-5,4.6-12.5,5.4-19.1,5.4
		c-8.6,0-17.7-1.6-24.9-6.8c-3.6-2.6-7.9-6.9-9.2-11.2C17.7,137,17,132,17,127.2c0-9.8,3.4-19.3,10.5-26.1
		C36.6,92.5,50.8,90.6,62,96.3z"/>
	<g>
		<g id="XMLID_40_">
			<g>
				<path class="st1" d="M57.9,128.4c0-1.5,0.1-3.1,0-4.6c1.9-0.1,3.9,0.4,5.8,0.1c0.1,0.1,0.3,0,0.3-0.1c0.1-0.4,0.4-4.4,0.1-5.6
					c0.7,0.1,1.4,0.1,2.1,0.1c0.6,0,1.3,0,1.9-0.1c-0.3,0.6-0.1,1.6-0.1,2.1c0,0.7,0.1,1.4,0.2,2.1c0,0.5-0.1,0.8,0.1,1.2
					c-0.1,0-0.1,0.1,0,0.2c0.7,0.3,1.7,0.1,2.5,0.2c1.1,0,2.4,0.2,3.5-0.1c-0.3,1.5-0.1,3.1-0.1,4.6c-1.8-0.2-3.8-0.2-5.5,0.1
					c0-0.1-0.2-0.1-0.3,0c0,0,0,0,0,0c0,0,0,0,0,0.1c0,0,0,0,0,0c0,0,0,0,0,0c-0.1,0.7-0.1,1.4,0,2.1c0.1,1.1,0,2.2,0.1,3.4
					c0,0,0,0,0,0s0,0,0,0c0,0,0,0.1,0,0.1c-1.6-0.2-3.1-0.2-4.6,0c0.1-1,0.1-2.1,0.1-3.2c0.1-0.9,0.2-1.7-0.1-2.5
					c0-0.1,0-0.1-0.1-0.2c-0.9-0.3-2-0.1-3-0.1C59.6,128.3,58.7,128.2,57.9,128.4z"/>
				<path class="st1" d="M63.6,123.9c-1.9,0.3-3.9-0.1-5.8-0.1c0.1,1.5,0,3.1,0,4.6c0.8-0.2,1.7-0.1,2.6-0.1c1,0,2.1-0.3,3,0.1
					c0.1,0,0.1,0.1,0.1,0.2c0.4,0.8,0.2,1.6,0.1,2.5c-0.1,1-0.1,2.1-0.1,3.2c1.6-0.2,3.1-0.2,4.6,0c0,0,0-0.1,0-0.1c0,0,0,0,0,0
					s0,0,0,0c-0.1-1.1,0.1-2.2-0.1-3.4c-0.1-0.7-0.1-1.4,0-2.1c0,0,0,0,0,0c0,0,0,0,0,0c0,0,0,0,0-0.1c0,0,0,0,0,0
					c0-0.1,0.2-0.1,0.3,0c1.8-0.3,3.8-0.3,5.5-0.1c0-1.5-0.2-3.1,0.1-4.6c-1.1,0.3-2.4,0.1-3.5,0.1c-0.7,0-1.8,0.2-2.5-0.2
					c-0.1-0.1-0.1-0.2,0-0.2c-0.1-0.4-0.1-0.8-0.1-1.2c0-0.7-0.2-1.4-0.2-2.1c0-0.5-0.2-1.5,0.1-2.1c-0.6,0.1-1.3,0.1-1.9,0.1
					c-0.7,0-1.4,0-2.1-0.1c0.4,1.2,0,5.2-0.1,5.6C63.9,123.9,63.8,124,63.6,123.9z M57.6,123.8c0,0,0-0.1,0-0.1c0,0,0,0,0,0
					c0-0.1,0.1-0.1,0.1-0.1c0.6-0.4,1.5-0.2,2.1-0.2c1.2,0,2.4-0.2,3.6,0c-0.1-1.4,0.1-2.8,0-4.2c0-0.4-0.3-1.3,0.3-1.4
					c0.1,0,0.1,0,0.2,0.1c0.8-0.1,1.7-0.1,2.5-0.2c0.3,0,0.6-0.1,0.9-0.1c0.3,0,0.6,0,0.9,0.2c0,0,0,0,0,0c0,0,0,0,0,0
					c0,0,0.1,0,0.1,0.1c0,0,0,0,0,0.1c0,0,0,0.1-0.1,0.1c0.3,0.7,0.2,1.7,0.2,2.4c-0.1,1-0.1,2-0.2,3.1c0.9,0,1.7-0.2,2.6-0.2
					c1,0,2.2-0.1,3.2,0.2c0.1,0,0.1,0.1,0.1,0.1c0,0,0,0,0,0l0,0.1c0,0.1-0.1,0.1-0.1,0c0.4,0.5,0.2,1.5,0.2,2.2
					c0,0.9-0.1,1.8-0.1,2.7c0,0.2-0.3,0.2-0.3,0c0,0,0,0,0-0.1c-1.1,0.2-2.2,0.3-3.3,0.3c-0.7,0-1.6,0.1-2.2-0.2
					c0.1,0.8,0.1,1.6,0.1,2.3c0,1,0,2,0,3c0,0.1,0,0.1-0.1,0.1c0,0,0,0.1,0,0.1c0,0,0,0,0,0.1c0.1,0,0.1,0.1,0,0.1
					c-0.7,0.3-1.5,0.1-2.2,0c-0.9-0.1-1.8,0-2.7-0.1c-0.1,0-0.1,0-0.1,0c-0.7-1.7,0-3.8,0-5.6c-0.9,0.1-1.9,0.1-2.9,0.1
					c-0.8,0-1.8,0-2.6-0.3c-0.1,0.2-0.4,0.2-0.5-0.1C57.3,126.9,57.4,125.4,57.6,123.8z"/>
				<path class="st1" d="M43.2,124.5c-3.1-0.2-6.5-0.5-8.9-2.5c-2.4-2-3.8-5.7-3.6-8.7c0.8-5.4,4.1-8,8.3-9.2l0.3,1
					c-3.3,1-3.9,7.7-3.4,10.2c0.8,4.1,3.4,7.7,7.5,8L43.2,124.5z"/>
				<path class="st1" d="M40.2,105.4c-4.1,0.5-4.3,8.6-3.5,11.1c1.1,3.6,5.9,8.4,9.9,5.8c3.3-2.1,3.2-7.8,1.8-11
					C47,108.1,43.9,105.2,40.2,105.4C40.2,105.4,40.2,105.4,40.2,105.4z M40.7,105c8.7-2,14.2,16.5,4.5,18.1
					c-0.7,0.1-1.3,0.1-1.9,0.1c-4-0.3-6.7-4-7.5-8c-0.5-2.5,0.1-9.2,3.4-10.2c0.4-0.1,0.8-0.1,1.2-0.1
					C40.6,104.9,40.7,104.9,40.7,105z"/>
				<path class="st1" d="M50.3,135.8c-0.3-0.1-0.5-0.3-0.8-0.4c0,0,0,0,0,0c-5.1-1.9-9.5-1.4-14.2,1.3c-0.4,0.3-0.7,0.7-1,1.1
					c-1.8,2.3-1.6,5.5,0.3,7.8c3,3.6,9.1,3.8,13.3,2.6C53.7,146.4,56.4,139.2,50.3,135.8z M50.2,134.8c1.1,0.7,2.1,1.5,2.8,2.5
					c2.8,3.9,0.4,9.4-3.9,10.9c-4.9,1.8-13.3,1.7-15.9-3.9c-1-2.1-1.1-4.7,0.2-6.6c0.5-0.7,1.4-1.6,2.3-2.3c0,0.1,0,0.1,0,0.1
					C39.4,132.4,46.3,132.3,50.2,134.8z"/>
				<path class="st1" d="M49.1,148.2c4.3-1.5,6.7-7,3.9-10.9c-0.7-0.9-1.6-1.8-2.8-2.5c-3.9-2.6-10.8-2.4-14.5,0.7c0,0,0-0.1,0-0.1
					c-1,0.7-1.8,1.6-2.3,2.3c-1.4,1.9-1.2,4.5-0.2,6.6C35.8,150,44.2,150,49.1,148.2z M54.9,113.6c-0.1,3.9-2.4,6.1-4.9,8.8
					c-1.5,1.6-3,3.6-1.1,5.1c0.7,1.3,2.1,2.1,3.2,3.2c2.4,2.2,4.3,4.9,4.6,8.1c0,1,0,2,0,2.9c0,0.3-0.1,0.5-0.1,0.7
					c-0.1,0.3-0.1,0.7-0.2,1c-0.5,1.4-1.6,3-2.7,4c-2.8,2.7-6.8,3.8-10.6,3.9c-3.1,0-6.2-0.6-9.2-1.7c-3.7-1.4-5.7-3.7-6.5-7.3
					c0-2.2,1.1-4.4,2.9-6.1c3.4-3,9-4.9,13.6-4.1c0.2,0,0.3-0.2,0.2-0.3c0,0,0,0,0,0c-0.2-0.4-0.4-0.7-0.7-1
					c-0.5-0.8-0.8-1.8-0.9-2.7c-0.1-1.1,0.2-2,0.7-3v0c0.1-0.1,0.1-0.4-0.2-0.4l0.1-1.3c0.6,0.1,1.2,0,1.9-0.1
					c9.7-1.6,4.2-20.1-4.5-18.1c0-0.1-0.1-0.1-0.2-0.2c-0.4,0-0.9,0-1.2,0.1l-0.3-1c5.5-1.6,12.7-0.8,18.1-0.8
					c-0.2,0.1-0.4,0.3-0.5,0.4c-0.6,0.4-1.2,0.9-1.8,1.4c-0.7,0-1.4,0-2.1-0.1c-0.6,0-1.2-0.2-1.8-0.1c0,0,0,0-0.1,0.1
					c-0.1,0-0.2,0.1-0.1,0.2c0,0,0.1,0,0.1,0.1c0,0,0,0,0,0C53.7,107.4,55,109.9,54.9,113.6z"/>
				<path class="st1" d="M49.7,127.3c0,0,0.1,0.1,0.1,0.1c1.7,2,4.3,3.4,5.7,5.8c0.8,1.4,1.4,2.7,1.6,4c0,0,0,0,0,0
					c0.2,0.4,0.3,1.2,0.3,1.7c0,0.5,0.1,1,0,1.5c0.1,0.2,0.1,0.6,0,0.8c0,0.4-0.1,0.8-0.3,1.2c-2.1,13.5-30,11.3-30.1,0.2
					c-0.1,0-0.1,0.1-0.2,0.1c-0.2-1.4,0.1-2.9,0.9-4.4c1.4-2.8,4.9-4.9,7.8-5.9c2.1-0.7,6-1.6,8.2-1c-1.2-0.9-1.5-2.7-1.6-4.1
					c0-0.5,0-1.9,0.6-2.4c-3.3,0.1-6.7-0.7-9.3-2.8c-2.2-1.8-3.7-5.2-3.4-8.1c-0.1,0-0.2-0.1-0.2-0.3c0.1-5.1,4.2-9.1,8.8-10.8
					c2.6-0.9,5.5-0.7,8.2-0.8c3.8-0.2,7.6,0,11.4,0.1c0.5,0,0.6,0.8,0,0.8c-0.1,0-0.1,0-0.2,0c-0.3,0.4-0.8,0.6-1.1,0.9
					c-0.6,0.4-1.2,1-1.9,1.3c0,0.1-0.1,0.2-0.3,0.2c-0.7,0-1.5,0-2.2-0.1c-0.2,0-0.5,0-0.7,0c2.8,1.9,4,5.2,3.8,8.7
					c-0.1,2.1-1,3.9-2.2,5.5C52.3,121.5,47.5,124.7,49.7,127.3z M50,122.4c2.5-2.6,4.8-4.9,4.9-8.8c0.1-3.7-1.2-6.2-4-8.4
					c0,0,0,0,0,0c0,0-0.1,0-0.1-0.1c-0.1-0.1,0-0.2,0.1-0.2c0,0,0,0,0.1-0.1c0.6-0.1,1.2,0,1.8,0.1c0.7,0,1.4,0,2.1,0.1
					c0.6-0.4,1.2-0.9,1.8-1.4c0.1-0.1,0.3-0.2,0.5-0.4c-5.4,0-12.6-0.8-18.1,0.8c-4.2,1.2-7.5,3.8-8.3,9.2c-0.2,3.1,1.2,6.7,3.6,8.7
					c2.5,2,5.9,2.4,8.9,2.5c0.2,0,0.3,0.3,0.2,0.4v0c-0.5,1-0.7,1.9-0.7,3c0,1,0.4,1.9,0.9,2.7c0.2,0.4,0.5,0.6,0.7,1c0,0,0,0,0,0
					c0.1,0.1,0,0.4-0.2,0.3c-4.6-0.7-10.2,1.1-13.6,4.1c-1.8,1.6-2.9,3.9-2.9,6.1c0.8,3.7,2.8,6,6.5,7.3c2.9,1.1,6,1.7,9.2,1.7
					c3.8,0,7.8-1.1,10.6-3.9c1.1-1.1,2.3-2.6,2.7-4c0.1-0.3,0.2-0.7,0.2-1c0-0.2,0-0.5,0.1-0.7c0.1-1,0-2,0-2.9
					c-0.4-3.2-2.3-5.8-4.6-8.1c-1.1-1-2.5-1.9-3.2-3.2C47.1,125.9,48.5,123.9,50,122.4z"/>
			</g>
			<g>
			</g>
		</g>
	</g>
</g>
</svg>
